<svg width="278" height="86" viewBox="0 0 278 86" fill="none" xmlns="http://www.w3.org/2000/svg">
<rect x="128.992" y="85.2534" width="85.2533" height="48.928" rx="24.464" transform="rotate(-90 128.992 85.2534)" fill="#01C4CA" fill-opacity="0.8"/>
<path d="M71.6001 85.2534C62.7636 85.2534 55.6001 78.09 55.6001 69.2534V34.1014C55.6001 20.5903 66.553 9.63742 80.0641 9.63742C93.5752 9.63742 104.528 20.5903 104.528 34.1014V69.2534C104.528 78.09 97.3647 85.2534 88.5281 85.2534H71.6001Z" fill="#F3A306" fill-opacity="0.8"/>
<path d="M0 37.8081C0 26.3442 9.29337 17.0508 20.7573 17.0508H38.5493C57.383 17.0508 72.6507 32.3185 72.6507 51.1521C72.6507 69.9858 57.383 85.2534 38.5493 85.2534H20.7573C9.29338 85.2534 0 75.9601 0 64.4961V37.8081Z" fill="#F55C98" fill-opacity="0.8"/>
<path d="M166.059 37.8081C166.059 26.3442 175.352 17.0508 186.816 17.0508H204.608C223.442 17.0508 238.709 32.3185 238.709 51.1521C238.709 69.9858 223.442 85.2534 204.608 85.2534H186.816C175.352 85.2534 166.059 75.9601 166.059 64.4961V37.8081Z" fill="#EE4F00" fill-opacity="0.8"/>
<rect x="85.2534" y="36.3254" width="68.2027" height="48.928" rx="24.464" fill="#7E63F0" fill-opacity="0.8"/>
<circle cx="247.605" cy="54.8585" r="30.3947" fill="#8ACDF4" fill-opacity="0.8"/>
<circle cx="21.7067" cy="56.7067" r="3.70667" fill="black"/>
<circle cx="137.888" cy="29.6532" r="3.70667" fill="black"/>
<circle cx="71.9093" cy="23.7225" r="3.70667" fill="black"/>
<circle cx="249.088" cy="40.7733" r="3.70667" fill="black"/>
<circle cx="197.195" cy="28.1705" r="3.70667" fill="black"/>
<path d="M46 56.7067C46 58.7538 44.3405 60.4133 42.2933 60.4133C40.2462 60.4133 38.5867 58.7538 38.5867 56.7067C38.5867 54.6595 40.2462 53 42.2933 53C44.3405 53 46 54.6595 46 56.7067Z" fill="black"/>
<circle cx="154.197" cy="29.6532" r="3.70667" fill="black"/>
<circle cx="88.2187" cy="23.7225" r="3.70667" fill="black"/>
<circle cx="263.915" cy="45.2213" r="3.70667" fill="black"/>
<circle cx="213.504" cy="28.1705" r="3.70667" fill="black"/>
<ellipse cx="80.0641" cy="30.0239" rx="3.70667" ry="2.59467" fill="black"/>
<path d="M26.3174 65.9785C26.3174 72.6505 37.4374 72.6505 37.4374 65.9785" stroke="black" stroke-width="5" stroke-linecap="round"/>
<path d="M249.182 49.1338C247.025 55.4475 257.548 59.0426 259.705 52.7289" stroke="black" stroke-width="5" stroke-linecap="round"/>
<path d="M146.043 37.5527C147.423 42.4856 162.405 38.2926 161.025 33.3598" stroke="black" stroke-width="5" stroke-linecap="round"/>
<path d="M107.493 68.2026C107.493 74.8746 118.613 74.8746 118.613 68.2026" stroke="black" stroke-width="5" stroke-linecap="round"/>
<path d="M99 56.9998C99 61.942 107.155 61.942 107.155 56.9998" stroke="black" stroke-width="5"/>
<path d="M118.275 56.9998C118.275 61.942 126.429 61.942 126.429 56.9998" stroke="black" stroke-width="5"/>
<path d="M191.264 35.5842C193.859 37.0665 204.251 40.8406 203.496 41.5149C202.741 42.1892 191.255 42.2193 188.669 38.5495C186.084 34.8798 188.669 34.1019 191.264 35.5842Z" fill="black" stroke="black" stroke-width="5" stroke-linecap="round"/>
</svg>
