<svg width="134" height="118" viewBox="0 0 134 118" fill="none" xmlns="http://www.w3.org/2000/svg">
<path d="M0 32C0 14.3269 14.3269 0 32 0L62.5 0C101.988 0 134 32.0116 134 71.5C134 110.988 101.988 143 62.5 143H32C14.3269 143 0 128.673 0 111L0 32Z" fill="#F55C98" fill-opacity="0.8"/>
<ellipse cx="38.54" cy="23.5576" rx="7.77333" ry="7.7931" transform="rotate(5.9559 38.54 23.5576)" fill="black"/>
<path d="M94.9798 23.3642C94.5332 27.645 90.7097 30.7541 86.4398 30.3087C82.1699 29.8632 79.0705 26.0318 79.517 21.751C79.9636 17.4703 83.7871 14.3611 88.0571 14.8066C92.327 15.252 95.4264 19.0834 94.9798 23.3642Z" fill="black"/>
<path d="M48 33C48 47.6667 79 47.6667 79 33" stroke="black" stroke-width="5" stroke-linecap="round"/>
</svg>
