<svg width="73" height="69" viewBox="0 0 73 69" fill="none" xmlns="http://www.w3.org/2000/svg">
<path d="M0 20.7573C0 9.29338 9.29337 0 20.7573 0H38.5493C57.383 0 72.6507 15.2677 72.6507 34.1013C72.6507 52.935 57.383 68.2027 38.5493 68.2027H20.7573C9.29338 68.2027 0 58.9093 0 47.4453V20.7573Z" fill="#F55C98" fill-opacity="0.8"/>
<circle cx="21.7067" cy="39.6559" r="3.70667" fill="black"/>
<path d="M46 39.6559C46 41.703 44.3405 43.3626 42.2933 43.3626C40.2462 43.3626 38.5867 41.703 38.5867 39.6559C38.5867 37.6087 40.2462 35.9492 42.2933 35.9492C44.3405 35.9492 46 37.6087 46 39.6559Z" fill="black"/>
<path d="M26.3174 48.9277C26.3174 55.5997 37.4374 55.5997 37.4374 48.9277" stroke="black" stroke-width="5" stroke-linecap="round"/>
</svg>
