<svg width="103" height="131" viewBox="0 0 103 131" fill="none" xmlns="http://www.w3.org/2000/svg">
<rect y="179.241" width="179.241" height="102.608" rx="40" transform="rotate(-90 0 179.241)" fill="#01C4CA" fill-opacity="0.8"/>
<path d="M42.2299 35.1098C42.2299 39.4138 38.7497 42.9029 34.4566 42.9029C30.1635 42.9029 26.6832 39.4138 26.6832 35.1098C26.6832 30.8058 30.1635 27.3167 34.4566 27.3167C38.7497 27.3167 42.2299 30.8058 42.2299 35.1098Z" fill="black"/>
<path d="M75.2382 35.1098C75.2382 39.4138 71.758 42.9029 67.4649 42.9029C63.1718 42.9029 59.6915 39.4138 59.6915 35.1098C59.6915 30.8058 63.1718 27.3167 67.4649 27.3167C71.758 27.3167 75.2382 30.8058 75.2382 35.1098Z" fill="black"/>
<path d="M67.6834 55.9191C67.6874 52.8791 64.2136 48.1493 60.8323 49.1304C58.3047 49.8638 56.396 56.1012 52.9531 56.0711C49.3243 56.0393 46.7807 49.1733 43.5555 48.428C39.4353 47.4759 35.055 52.8592 35.051 55.9191" stroke="black" stroke-width="5" stroke-linecap="round"/>
</svg>
