<svg viewBox="0 -10 140 136" fill="none" xmlns="http://www.w3.org/2000/svg">
<path d="M6.70411 -6.63773L10.3305 -4.42586L14.1912 -6.19749L14.0889 -1.95099L17.5535 0.506617L13.8247 2.54125L13.4287 6.77049L9.80225 4.55862L5.9416 6.33025L6.04392 2.08375L2.57932 -0.373856L6.30806 -2.40849L6.70411 -6.63773Z" fill="#CE38A4" fill-opacity="0.3"/>
<path d="M111.257 87.9366L111.281 92.1843L114.817 94.5377L111.151 96.6824L110.881 100.922L107.19 98.8185L103.384 100.704L103.36 96.4566L99.8236 94.1032L103.49 91.9585L103.76 87.7193L107.451 89.8223L111.257 87.9366Z" fill="#CE38A4" fill-opacity="0.3"/>
<path d="M39.6756 82.247L39.4899 86.4906L42.9056 89.0158L39.1376 90.9768L38.6586 95.1975L35.0763 92.9148L31.1817 94.6103L31.3673 90.3667L27.9516 87.8415L31.7196 85.8805L32.1986 81.6598L35.7809 83.9425L39.6756 82.247Z" fill="#CDCB4E" fill-opacity="0.3"/>
<path d="M23.2514 48.7056L21.2506 61.541L11.1352 53.3906L23.2514 48.7056Z" fill="#238DDA" fill-opacity="0.3"/>
<path d="M16.5481 118.657L27.7042 125.312L16.3626 131.646L16.5481 118.657Z" fill="#CDCB4E" fill-opacity="0.3"/>
<path d="M120.333 111.661L122.415 124.483L110.27 119.875L120.333 111.661Z" fill="#CDCB4E" fill-opacity="0.3"/>
<path d="M113 24L117.33 31.5H108.67L113 24Z" fill="#CDCB4E" fill-opacity="0.3"/>
<path d="M29.0617 11.9544L36.9726 15.4782L29.9655 20.5674L29.0617 11.9544Z" fill="#CDCB4E" fill-opacity="0.3"/>
<path d="M93.1986 4.16326L91.8071 12.711L85.1003 7.23207L93.1986 4.16326Z" fill="#238DDA" fill-opacity="0.3"/>
<path d="M45 112L49.3301 119.5H40.6699L45 112Z" fill="#CE38A4" fill-opacity="0.3"/>
<circle cx="8" cy="22" r="5" fill="#238DDA" fill-opacity="0.3"/>
<path d="M70 32L71.5 34.4019L74.3301 34.5L73 37L74.3301 39.5L71.5 39.5981L70 42L68.5 39.5981L65.6699 39.5L67 37L65.6699 34.5L68.5 34.4019L70 32Z" fill="#CE38A4" fill-opacity="0.3"/>
<path d="M125 6L126.5 8.40192L129.33 8.5L128 11L129.33 13.5L126.5 13.5981L125 16L123.5 13.5981L120.67 13.5L122 11L120.67 8.5L123.5 8.40192L125 6Z" fill="#CE38A4" fill-opacity="0.3"/>
<circle cx="68" r="5" fill="#CDCB4E" fill-opacity="0.3"/>
<circle cx="125" cy="62" r="5" fill="#238DDA" fill-opacity="0.3"/>
<circle cx="18" cy="102" r="5" fill="#CE38A4" fill-opacity="0.3"/>
<path d="M96.5 116L97.25 117.201L98.6651 117.25L98 118.5L98.6651 119.75L97.25 119.799L96.5 121L95.75 119.799L94.3349 119.75L95 118.5L94.3349 117.25L95.75 117.201L96.5 116Z" fill="#238DDA" fill-opacity="0.3"/>
<circle cx="56.5" cy="69.5" r="2.5" fill="#238DDA" fill-opacity="0.3"/>
<circle cx="76.5" cy="114.5" r="2.5" fill="#238DDA" fill-opacity="0.3"/>
<path d="M13.5 36L15.6651 39.75H11.3349L13.5 36Z" fill="#CDCB4E" fill-opacity="0.3"/>
<path d="M17.5 70L18.25 71.201L19.6651 71.25L19 72.5L19.6651 73.75L18.25 73.799L17.5 75L16.75 73.799L15.3349 73.75L16 72.5L15.3349 71.25L16.75 71.201L17.5 70Z" fill="#CE38A4" fill-opacity="0.3"/>
<circle cx="54.5" cy="13.5" r="2.5" fill="#238DDA" fill-opacity="0.3"/>
<path d="M46.7107 43.0011C47.3982 27.679 60.2659 16 75.6034 16C90.9409 16 103.809 27.679 104.496 43.001C105.164 57.8841 105.225 74.2749 102.672 78.9538C97.6854 88.0923 53.521 88.0923 48.5346 78.9538C45.9816 74.2749 46.0429 57.8842 46.7107 43.0011Z" fill="#34D0D5"/>
<path d="M65.6304 37.6739C65.6384 44.1972 77.1016 44.1848 77.0936 37.6615L65.6304 37.6739Z" fill="black" stroke="black" stroke-width="1.5" stroke-linecap="round"/>
<ellipse cx="87.5485" cy="40.402" rx="4.36592" ry="4.09429" fill="#34D0D5"/>
<g filter="url(#filter0_f_34_174)">
<path d="M92.1706 40.7405C92.1706 43.0017 90.2159 42.7385 87.8046 42.7385C85.3934 42.7385 83.4387 43.0017 83.4387 40.7405C83.4387 38.4792 85.3585 37.6615 87.7697 37.6615C90.1809 37.6615 92.1706 38.4792 92.1706 40.7405Z" fill="#F55C98"/>
</g>
<g filter="url(#filter1_f_34_174)">
<path d="M59.4032 40.7405C59.4032 43.0017 57.4485 42.7385 55.0373 42.7385C52.6261 42.7385 50.6714 43.0017 50.6714 40.7405C50.6714 38.4792 52.5911 37.6615 55.0024 37.6615C57.4136 37.6615 59.4032 38.4792 59.4032 40.7405Z" fill="#F55C98"/>
</g>
<ellipse cx="78.0962" cy="99.2615" rx="20.3015" ry="4.73846" fill="#207174" fill-opacity="0.16"/>
<path d="M57.4386 34.6155C58.5071 29.2 64.9181 28.8615 65.6304 34.6155" stroke="black" stroke-width="2" stroke-linecap="round"/>
<path d="M77.0277 34.4049C78.0962 28.9894 84.5072 28.6509 85.2196 34.4049" stroke="black" stroke-width="2" stroke-linecap="round"/>
<path d="M48.1782 53.2308C43.5398 50.7067 42.0284 48.0305 41.411 41.0462" stroke="black" stroke-width="2" stroke-linecap="round"/>
<path d="M101.603 53.2308C96.9648 50.7067 95.4534 48.0305 94.8361 41.0462" stroke="black" stroke-width="2" stroke-linecap="round"/>
<path d="M88.7812 97.9077L83.4387 81.6615" stroke="black" stroke-width="2" stroke-linecap="round"/>
<path d="M68.8359 97.9077L63.4934 81.6615" stroke="black" stroke-width="2" stroke-linecap="round"/>
<ellipse cx="87.7128" cy="98.2462" rx="2.137" ry="1.01538" fill="black"/>
<ellipse cx="67.7674" cy="98.2462" rx="2.137" ry="1.01538" fill="black"/>
<path d="M40.6987 35.6308L41.4119 36.5541L42.4597 35.8461L42.7684 36.8944L44.0483 36.4711L43.9223 37.5418L45.309 37.4445L44.7607 38.4327L46.1184 38.6711L45.2015 39.4801L46.3974 40.0308L45.2015 40.5814L46.1184 41.3904L44.7607 41.6288L45.309 42.617L43.9223 42.5198L44.0483 43.5904L42.7684 43.1671L42.4597 44.2154L41.4119 43.5074L40.6987 44.4308L39.9855 43.5074L38.9377 44.2154L38.629 43.1671L37.3491 43.5904L37.475 42.5198L36.0884 42.617L36.6366 41.6288L35.2789 41.3904L36.1959 40.5814L35 40.0308L36.1959 39.4801L35.2789 38.6711L36.6366 38.4327L36.0884 37.4445L37.475 37.5418L37.3491 36.4711L38.629 36.8944L38.9377 35.8461L39.9855 36.5541L40.6987 35.6308Z" fill="#F5B538"/>
<path d="M94.8361 34.9538L95.5493 35.8772L96.5971 35.1692L96.9058 36.2175L98.1857 35.7942L98.0598 36.8648L99.4465 36.7676L98.8982 37.7558L100.256 37.9942L99.3389 38.8032L100.535 39.3538L99.3389 39.9045L100.256 40.7135L98.8982 40.9519L99.4465 41.9401L98.0598 41.8429L98.1857 42.9135L96.9058 42.4902L96.5971 43.5385L95.5493 42.8305L94.8361 43.7538L94.123 42.8305L93.0751 43.5385L92.7664 42.4902L91.4865 42.9135L91.6125 41.8429L90.2258 41.9401L90.7741 40.9519L89.4164 40.7135L90.3333 39.9045L89.1375 39.3538L90.3333 38.8032L89.4164 37.9942L90.7741 37.7558L90.2258 36.7676L91.6125 36.8648L91.4865 35.7942L92.7664 36.2175L93.0751 35.1692L94.123 35.8772L94.8361 34.9538Z" fill="#F5B538"/>
<defs>
<filter id="filter0_f_34_174" x="80.4387" y="34.6615" width="14.7318" height="11.0863" filterUnits="userSpaceOnUse" color-interpolation-filters="sRGB">
<feFlood flood-opacity="0" result="BackgroundImageFix"/>
<feBlend mode="normal" in="SourceGraphic" in2="BackgroundImageFix" result="shape"/>
<feGaussianBlur stdDeviation="1.5" result="effect1_foregroundBlur_34_174"/>
</filter>
<filter id="filter1_f_34_174" x="47.6714" y="34.6615" width="14.7318" height="11.0863" filterUnits="userSpaceOnUse" color-interpolation-filters="sRGB">
<feFlood flood-opacity="0" result="BackgroundImageFix"/>
<feBlend mode="normal" in="SourceGraphic" in2="BackgroundImageFix" result="shape"/>
<feGaussianBlur stdDeviation="1.5" result="effect1_foregroundBlur_34_174"/>
</filter>
</defs>
</svg>
