<svg width="127" height="190" viewBox="0 0 127 190" fill="none" xmlns="http://www.w3.org/2000/svg">
<g filter="url(#filter0_d_307_2024)">
<rect x="4" y="45" width="119" height="86" rx="43" fill="#7E63F0" fill-opacity="0.8"/>
<path opacity="0.8" d="M51.5 104C51.5 115.727 70 115.727 70 104" stroke="black" stroke-width="8" stroke-linecap="round"/>
<ellipse cx="37.8982" cy="82.8982" rx="6.52439" ry="6.52439" transform="rotate(-13.8707 37.8982 82.8982)" fill="black"/>
<circle cx="69.8982" cy="82.8982" r="6.52439" transform="rotate(-13.8707 69.8982 82.8982)" fill="black"/>
<circle cx="35" cy="83" r="12" stroke="#EB7452" stroke-opacity="0.8" stroke-width="4"/>
<circle cx="70" cy="83" r="12" stroke="#EB7452" stroke-opacity="0.8" stroke-width="4"/>
<line x1="47" y1="82" x2="58" y2="82" stroke="#EB7452" stroke-opacity="0.8" stroke-width="4"/>
<line x1="82.4738" y1="80.0705" x2="93.4738" y2="77.0705" stroke="#EB7452" stroke-opacity="0.8" stroke-width="4"/>
<path d="M100 87C100.821 87.7389 102.086 87.6724 102.825 86.8514C103.563 86.0303 103.497 84.7658 102.676 84.0268L100 87ZM90 78L100 87L102.676 84.0268L92.6759 75.0268L90 78Z" fill="#EB7452" fill-opacity="0.8"/>
<mask id="path-10-inside-1_307_2024" fill="white">
<path d="M40 30H89V45H40V30Z"/>
</mask>
<path d="M40 30H89V45H40V30Z" fill="white"/>
<path d="M40 31H89V29H40V31ZM89 44H40V46H89V44Z" fill="#99BF40" mask="url(#path-10-inside-1_307_2024)"/>
<path d="M34 34C34 31.7909 35.7909 30 38 30H40V45H38C35.7909 45 34 43.2091 34 41V34Z" fill="#99BF40"/>
<mask id="path-13-inside-2_307_2024" fill="white">
<path d="M36 15H85V30H36V15Z"/>
</mask>
<path d="M36 15H85V30H36V15Z" fill="white"/>
<path d="M36 16H85V14H36V16ZM85 29H36V31H85V29Z" fill="#F7C977" mask="url(#path-13-inside-2_307_2024)"/>
<path d="M30 19C30 16.7909 31.7909 15 34 15H36V30H34C31.7909 30 30 28.2091 30 26V19Z" fill="#F7C977"/>
<mask id="path-16-inside-3_307_2024" fill="white">
<path d="M42 0H91V15H42V0Z"/>
</mask>
<path d="M42 0H91V15H42V0Z" fill="white"/>
<path d="M42 1H91V-1H42V1ZM91 14H42V16H91V14Z" fill="#5960B7" mask="url(#path-16-inside-3_307_2024)"/>
<path d="M36 4C36 1.79086 37.7909 0 40 0H42V15H40C37.7909 15 36 13.2091 36 11V4Z" fill="#5960B7"/>
</g>
<path d="M39.8785 171.04C42.1345 171.04 43.8305 172.448 43.8305 174.432C43.8305 176.4 42.1345 177.808 39.8785 177.808C37.6225 177.808 35.9265 176.4 35.9265 174.432C35.9265 172.448 37.6225 171.04 39.8785 171.04ZM39.8785 172.768C38.7905 172.768 37.9745 173.376 37.9745 174.432C37.9745 175.488 38.7905 176.096 39.8785 176.096C40.9665 176.096 41.7665 175.488 41.7665 174.432C41.7665 173.376 40.9665 172.768 39.8785 172.768ZM45.8785 170.608H48.0225V178.016H45.8785V170.608ZM38.1345 178.624H48.0225V182.688H40.2465V184.48H38.1665V181.152H45.9105V180.272H38.1345V178.624ZM38.1665 183.616H48.3905V185.264H38.1665V183.616ZM59.9573 170.624H62.0853V181.52H59.9573V170.624ZM61.4773 174.784H64.0533V176.528H61.4773V174.784ZM52.5333 183.472H62.6133V185.168H52.5333V183.472ZM52.5333 180.416H54.6613V183.84H52.5333V180.416ZM50.8533 171.664H52.9653V173.792H55.8613V171.664H57.9733V179.184H50.8533V171.664ZM52.9653 175.408V177.52H55.8613V175.408H52.9653ZM74.772 170.608H76.9V179.312H74.772V170.608ZM76.148 174.096H78.756V175.84H76.148V174.096ZM66.932 179.856H76.9V183.216H69.06V184.4H66.948V181.904H74.804V181.264H66.932V179.856ZM66.948 183.92H77.412V185.328H66.948V183.92ZM68.5 176.528H70.628V178.64H68.5V176.528ZM65.188 179.184L64.964 177.744C67.588 177.744 71.124 177.728 74.116 177.328L74.276 178.624C71.156 179.168 67.748 179.184 65.188 179.184ZM65.348 171.536H73.748V172.944H65.348V171.536ZM69.556 173.216C71.748 173.216 73.156 173.936 73.156 175.152C73.156 176.384 71.748 177.104 69.556 177.104C67.348 177.104 65.94 176.384 65.94 175.152C65.94 173.936 67.348 173.216 69.556 173.216ZM69.556 174.528C68.548 174.528 67.956 174.72 67.956 175.152C67.956 175.584 68.548 175.792 69.556 175.792C70.564 175.792 71.14 175.584 71.14 175.152C71.14 174.72 70.564 174.528 69.556 174.528ZM68.5 170.48H70.628V172.32H68.5V170.48ZM79.8748 177.568H93.2828V179.264H79.8748V177.568ZM85.5228 175.344H87.6348V178.224H85.5228V175.344ZM81.4908 174.672H91.7628V176.352H81.4908V174.672ZM81.4908 171.248H91.6828V172.912H83.6028V175.744H81.4908V171.248ZM86.5308 180C89.7308 180 91.6668 180.976 91.6668 182.72C91.6668 184.464 89.7308 185.44 86.5308 185.44C83.3307 185.44 81.3788 184.464 81.3788 182.72C81.3788 180.976 83.3307 180 86.5308 180ZM86.5308 181.6C84.5468 181.6 83.5388 181.968 83.5388 182.72C83.5388 183.488 84.5468 183.824 86.5308 183.824C88.5148 183.824 89.5228 183.488 89.5228 182.72C89.5228 181.968 88.5148 181.6 86.5308 181.6Z" fill="#99BF40"/>
<defs>
<filter id="filter0_d_307_2024" x="0" y="0" width="127" height="139" filterUnits="userSpaceOnUse" color-interpolation-filters="sRGB">
<feFlood flood-opacity="0" result="BackgroundImageFix"/>
<feColorMatrix in="SourceAlpha" type="matrix" values="0 0 0 0 0 0 0 0 0 0 0 0 0 0 0 0 0 0 127 0" result="hardAlpha"/>
<feOffset dy="4"/>
<feGaussianBlur stdDeviation="2"/>
<feComposite in2="hardAlpha" operator="out"/>
<feColorMatrix type="matrix" values="0 0 0 0 0 0 0 0 0 0 0 0 0 0 0 0 0 0 0.25 0"/>
<feBlend mode="normal" in2="BackgroundImageFix" result="effect1_dropShadow_307_2024"/>
<feBlend mode="normal" in="SourceGraphic" in2="effect1_dropShadow_307_2024" result="shape"/>
</filter>
</defs>
</svg>
