<svg width="218" height="208" viewBox="0 0 218 208" fill="none" xmlns="http://www.w3.org/2000/svg">
<g filter="url(#filter0_d_266_14750)">
<path d="M4 95C4 77.3269 18.3269 63 36 63H79C115.451 63 145 92.5492 145 129C145 165.451 115.451 195 79 195H36C18.3269 195 4 180.673 4 163V95Z" fill="#EE4F00" fill-opacity="0.8"/>
<path d="M52.9182 98.8697C57.9542 101.739 78.1228 109.043 76.6579 110.348C75.193 111.653 52.9004 111.711 47.8824 104.609C42.8645 97.5064 47.8821 96.0009 52.9182 98.8697Z" fill="black" stroke="black" stroke-width="5" stroke-linecap="round"/>
<path d="M91.4685 84C91.4685 91.814 104.362 91.814 104.362 84" stroke="black" stroke-width="5"/>
<path d="M61 84.6136C61 92.4277 73.8931 92.4277 73.8931 84.6136" stroke="black" stroke-width="5"/>
<path d="M148.312 102.574C154.302 102.574 159.445 100.816 163.742 97.3008C168.104 93.7852 170.285 88.7396 170.285 82.1641C170.285 77.151 168.56 72.8542 165.109 69.2734C161.659 65.6276 157.004 63.8047 151.145 63.8047C147.173 63.8047 143.885 64.3581 141.281 65.4648C138.742 66.5716 136.724 68.0365 135.227 69.8594C133.729 71.6823 132.297 74.026 130.93 76.8906C129.628 79.7552 128.423 82.457 127.316 84.9961C126.665 86.3633 125.493 87.4375 123.801 88.2188C122.108 89 120.155 89.3906 117.941 89.3906C115.337 89.3906 112.928 88.349 110.715 86.2656C108.566 84.1172 107.492 81.2852 107.492 77.7695C107.492 74.3841 108.501 70.8359 110.52 67.125C112.603 63.349 115.598 59.7682 119.504 56.3828C123.475 52.9974 128.391 50.2956 134.25 48.2773C140.109 46.194 146.652 45.1523 153.879 45.1523C160.194 45.1523 165.956 46.0312 171.164 47.7891C176.372 49.4818 180.897 51.9557 184.738 55.2109C188.579 58.4661 191.477 62.2422 193.43 66.5391C195.383 70.8359 196.359 75.4583 196.359 80.4062C196.359 86.9167 194.927 92.5156 192.062 97.2031C189.263 101.826 185.227 106.35 179.953 110.777C185.031 113.512 189.296 116.637 192.746 120.152C196.262 123.668 198.898 127.574 200.656 131.871C202.414 136.103 203.293 140.693 203.293 145.641C203.293 151.565 202.089 157.294 199.68 162.828C197.336 168.362 193.853 173.31 189.23 177.672C184.608 181.969 179.107 185.354 172.727 187.828C166.411 190.237 159.413 191.441 151.73 191.441C143.918 191.441 136.919 190.042 130.734 187.242C124.549 184.443 119.439 180.96 115.402 176.793C111.431 172.561 108.404 168.199 106.32 163.707C104.302 159.215 103.293 155.504 103.293 152.574C103.293 148.798 104.497 145.771 106.906 143.492C109.38 141.148 112.44 139.977 116.086 139.977C117.909 139.977 119.667 140.53 121.359 141.637C123.052 142.678 124.159 143.948 124.68 145.445C128.065 154.495 131.678 161.233 135.52 165.66C139.426 170.022 144.895 172.203 151.926 172.203C155.962 172.203 159.836 171.227 163.547 169.273C167.323 167.255 170.415 164.293 172.824 160.387C175.298 156.48 176.535 151.956 176.535 146.812C176.535 139.195 174.452 133.238 170.285 128.941C166.118 124.579 160.324 122.398 152.902 122.398C151.6 122.398 149.582 122.529 146.848 122.789C144.113 123.049 142.355 123.18 141.574 123.18C137.993 123.18 135.227 122.301 133.273 120.543C131.32 118.72 130.344 116.214 130.344 113.023C130.344 109.898 131.516 107.392 133.859 105.504C136.203 103.551 139.686 102.574 144.309 102.574H148.312Z" fill="#99BF40" fill-opacity="0.8"/>
<path d="M125.071 153.279C127.396 158.592 120.637 168.907 109 174C97.3629 179.093 100.325 168.813 98 163.5C95.6751 158.187 91.363 161.593 103 156.5C114.637 151.407 122.746 147.967 125.071 153.279Z" fill="#EF7031" fill-opacity="0.8"/>
</g>
<defs>
<filter id="filter0_d_266_14750" x="0" y="45.1523" width="207.293" height="157.848" filterUnits="userSpaceOnUse" color-interpolation-filters="sRGB">
<feFlood flood-opacity="0" result="BackgroundImageFix"/>
<feColorMatrix in="SourceAlpha" type="matrix" values="0 0 0 0 0 0 0 0 0 0 0 0 0 0 0 0 0 0 127 0" result="hardAlpha"/>
<feOffset dy="4"/>
<feGaussianBlur stdDeviation="2"/>
<feComposite in2="hardAlpha" operator="out"/>
<feColorMatrix type="matrix" values="0 0 0 0 0 0 0 0 0 0 0 0 0 0 0 0 0 0 0.25 0"/>
<feBlend mode="normal" in2="BackgroundImageFix" result="effect1_dropShadow_266_14750"/>
<feBlend mode="normal" in="SourceGraphic" in2="effect1_dropShadow_266_14750" result="shape"/>
</filter>
</defs>
</svg>
