<svg width="116" height="211" viewBox="0 0 116 211" fill="none" xmlns="http://www.w3.org/2000/svg">
<path d="M37 211C19.3269 211 5 196.673 5 179L5 101C5 71.7289 28.7289 48 58 48C87.2711 48 111 71.7289 111 101V179C111 196.673 96.6731 211 79 211H37Z" fill="#F3A306" fill-opacity="0.8"/>
<ellipse cx="40.3331" cy="78.3623" rx="8.0303" ry="7.9902" fill="black"/>
<ellipse cx="75.6664" cy="78.3623" rx="8.0303" ry="7.9902" fill="black"/>
<path d="M48 95C48 108.333 68 108.333 68 95" stroke="black" stroke-width="8" stroke-linecap="round"/>
<rect width="116" height="34" rx="4" fill="white"/>
<path d="M10.6873 20.984H24.0953V22.712H10.6873V20.984ZM16.3033 17.704H18.4313V21.384H16.3033V17.704ZM12.0793 10.696H22.6233V17.976H12.0793V10.696ZM20.5433 12.392H14.1753V16.296H20.5433V12.392ZM27.086 14.84H37.262V16.536H27.086V14.84ZM25.39 17.992H38.814V19.704H25.39V17.992ZM30.99 18.984H33.102V24.408H30.99V18.984ZM27.086 10.392H37.118V12.088H29.262V15.656H27.086V10.392ZM53.3933 9.592H55.5373V24.456H53.3933V9.592ZM55.0573 15.08H57.6813V16.824H55.0573V15.08ZM44.4973 19.128H45.7453C48.2413 19.128 50.2093 19.048 52.3853 18.664L52.5933 20.424C50.3533 20.824 48.3213 20.888 45.7453 20.888H44.4973V19.128ZM44.4973 10.968H51.4093V12.68H46.6093V19.976H44.4973V10.968ZM62.9645 14.984H64.1965C67.2845 14.984 68.9645 14.888 70.8365 14.504L71.0605 16.152C69.1565 16.584 67.3645 16.648 64.1965 16.648H62.9645V14.984ZM62.9645 10.376H69.5885V12.04H65.0765V15.912H62.9645V10.376ZM71.9885 9.608H74.1165V16.968H71.9885V9.608ZM73.5245 12.392H76.0845V14.12H73.5245V12.392ZM64.3245 17.576H74.1165V21.672H66.4685V23.448H64.3565V20.104H72.0205V19.24H64.3245V17.576ZM64.3565 22.584H74.5485V24.264H64.3565V22.584ZM86.6753 9.592H88.7873V24.456H86.6753V9.592ZM88.3073 15.192H90.9313V16.952H88.3073V15.192ZM77.7793 19.272H79.0273C81.5393 19.272 83.4913 19.192 85.6673 18.808L85.8753 20.52C83.6353 20.92 81.6033 21.016 79.0273 21.016H77.7793V19.272ZM77.7633 10.856H84.5793V16.6H79.8913V19.928H77.7793V14.904H82.4673V12.552H77.7633V10.856ZM94.85 17.128H96.962V21.288H94.85V17.128ZM100.226 17.128H102.354V21.288H100.226V17.128ZM91.906 20.984H105.314V22.712H91.906V20.984ZM98.594 10.328C101.778 10.328 104.13 11.896 104.13 14.312C104.13 16.728 101.778 18.28 98.594 18.28C95.394 18.28 93.058 16.728 93.058 14.312C93.058 11.896 95.394 10.328 98.594 10.328ZM98.594 11.992C96.53 11.992 95.154 12.84 95.154 14.312C95.154 15.768 96.53 16.632 98.594 16.632C100.658 16.632 102.034 15.768 102.034 14.312C102.034 12.84 100.658 11.992 98.594 11.992Z" fill="#EB7452"/>
<path d="M5.2 35.5C5.2 30.8056 9.00558 27 13.7 27C18.3944 27 22.2 30.8056 22.2 35.5V62C19.5 64.5 17.8 67 14.5 71C11.8405 75.5885 10.4163 77.8902 8 83.5L5.2 96V35.5Z" fill="#F3A306" fill-opacity="0.8"/>
</svg>
