<svg width="155" height="227" viewBox="0 0 155 227" fill="none" xmlns="http://www.w3.org/2000/svg">
<g filter="url(#filter0_d_307_1991)">
<circle cx="57.5" cy="114.5" r="53.5" fill="#8ACDF4" fill-opacity="0.8"/>
<ellipse cx="80.5244" cy="99.5244" rx="6.52439" ry="6.52439" fill="black"/>
<ellipse cx="53.5244" cy="112.524" rx="6.52439" ry="6.52439" fill="black"/>
<path d="M81.0488 119.524C81.0488 123.128 78.1277 126.049 74.5244 126.049C70.9211 126.049 68 123.128 68 119.524C68 115.921 70.9211 109.5 74.5244 109.5C78.1277 109.5 81.0488 115.921 81.0488 119.524Z" fill="black"/>
<path d="M80.0268 95.0397C78.9173 93.1294 79.5665 90.6814 81.4768 89.5719L86.68 86.5499L93.209 97.7914L88.0058 100.813C86.0955 101.923 83.6474 101.274 82.5379 99.3634L80.0268 95.0397Z" fill="white"/>
<path d="M86.1629 85.6936C85.6082 84.7384 85.9328 83.5144 86.8879 82.9597L94.6562 78.4479L104.199 94.8779L96.4303 99.3896C95.4752 99.9443 94.2511 99.6197 93.6964 98.6646L86.1629 85.6936Z" fill="#DADADA" fill-opacity="0.8"/>
<path d="M94.1683 77.5749C93.6136 76.6198 93.9382 75.3957 94.8933 74.841L125.905 56.8296L138.461 78.448L107.449 96.4593C106.494 97.0141 105.27 96.6895 104.715 95.7343L94.1683 77.5749Z" fill="#7680E2"/>
<rect x="124.155" y="55.5334" width="15" height="29" rx="4" transform="rotate(-30.1477 124.155 55.5334)" fill="#463BD5"/>
</g>
<g filter="url(#filter1_d_307_1991)">
<path d="M69.649 0.717148C69.9973 0.5162 70.4258 0.733137 70.5084 1.15223L70.9171 3.22715C70.9418 3.35248 71.0003 3.46699 71.0851 3.55609L72.4887 5.03116C72.7722 5.32909 72.7148 5.83902 72.3735 6.05385L70.6839 7.11747C70.5819 7.18172 70.4997 7.27753 70.4479 7.39269L69.5908 9.29922C69.4176 9.6843 68.9536 9.78252 68.6601 9.4962L67.2072 8.07863C67.1194 7.99301 67.0102 7.93771 66.8934 7.91978L64.96 7.62301C64.5694 7.56307 64.3401 7.11384 64.5 6.72205L65.2916 4.78233C65.3394 4.66516 65.3541 4.53518 65.3337 4.40894L64.9959 2.319C64.9277 1.89687 65.25 1.52102 65.6423 1.5652L67.5845 1.78395C67.7018 1.79716 67.8201 1.77213 67.9243 1.71203L69.649 0.717148Z" fill="#F7C977"/>
<path d="M103.304 4.89914C103.69 4.98318 103.896 5.44589 103.715 5.82713L102.156 9.12605C102.102 9.24006 102.081 9.36892 102.095 9.49622L102.492 13.1796C102.538 13.6052 102.197 13.9605 101.808 13.8921L98.4386 13.3C98.3222 13.2796 98.2028 13.2973 98.0956 13.3508L94.9949 14.9C94.6366 15.079 94.2201 14.8359 94.1597 14.4124L93.6368 10.7476C93.6187 10.6209 93.5664 10.503 93.4864 10.4088L91.1724 7.68289C90.905 7.36787 90.9891 6.86233 91.3411 6.669L94.3868 4.99606C94.4921 4.93824 94.5791 4.84767 94.6368 4.73591L96.3074 1.50202C96.5005 1.12829 96.9689 1.05899 97.2468 1.36303L99.6521 3.99389C99.7353 4.08482 99.8414 4.1468 99.9571 4.17193L103.304 4.89914Z" fill="#F7C977"/>
<path d="M97.8366 42.259C98.3306 42.1774 98.691 42.7547 98.4386 43.2234L97.6249 44.7343C97.5233 44.9229 97.5164 45.1545 97.6066 45.3499L98.329 46.9147C98.553 47.4 98.1592 47.9509 97.671 47.8348L96.0972 47.4607C95.9008 47.414 95.6959 47.4785 95.5529 47.632L94.4066 48.8622C94.0511 49.2438 93.4473 49.0069 93.398 48.4666L93.2391 46.7244C93.2193 46.5069 93.0995 46.3151 92.9209 46.2147L91.4901 45.4102C91.0464 45.1607 91.0671 44.4634 91.5247 44.2455L93.0003 43.5429C93.1845 43.4552 93.3153 43.2722 93.348 43.0566L93.61 41.3292C93.6912 40.7934 94.3078 40.5994 94.64 41.0051L95.7108 42.313C95.8445 42.4762 96.0451 42.5549 96.2439 42.5221L97.8366 42.259Z" fill="#F7C977"/>
<path d="M138.652 31.1663C138.527 31.692 137.897 31.8249 137.6 31.3884L136.641 29.9811C136.522 29.8054 136.328 29.7074 136.128 29.7207L134.52 29.8269C134.021 29.8599 133.71 29.2497 134 28.8076L134.936 27.3824C135.052 27.2045 135.078 26.9745 135.005 26.7711L134.415 25.142C134.232 24.6367 134.67 24.1266 135.146 24.2899L136.683 24.8165C136.875 24.8822 137.084 24.838 137.239 24.6991L138.483 23.586C138.868 23.2407 139.45 23.5357 139.454 24.0787L139.468 25.8293C139.47 26.0478 139.573 26.2505 139.743 26.368L141.101 27.3092C141.523 27.6011 141.444 28.2935 140.97 28.4658L139.443 29.0212C139.252 29.0905 139.106 29.26 139.056 29.4716L138.652 31.1663Z" fill="#F7C977"/>
<path d="M68.505 29.5927C68.999 29.5111 69.3593 30.0884 69.1069 30.5571L69.0959 30.5775C68.9944 30.7661 68.9875 30.9978 69.0777 31.1931L69.0874 31.2143C69.3115 31.6996 68.9176 32.2505 68.4295 32.1344L68.4082 32.1294C68.2117 32.0827 68.0069 32.1471 67.8638 32.3007L67.8483 32.3174C67.4928 32.6989 66.889 32.4621 66.8397 31.9217L66.8375 31.8981C66.8177 31.6807 66.698 31.4889 66.5194 31.3884L66.5 31.3775C66.0562 31.128 66.0769 30.4308 66.5346 30.2129L66.5546 30.2034C66.7388 30.1157 66.8696 29.9326 66.9023 29.717L66.9059 29.6936C66.9871 29.1579 67.6037 28.9638 67.9358 29.3695L67.9503 29.3872C68.084 29.5504 68.2846 29.6291 68.4834 29.5963L68.505 29.5927Z" fill="#F7C977"/>
<path d="M109.505 45.5731C109.999 45.4915 110.359 46.0688 110.107 46.5375L110.096 46.5579C109.994 46.7465 109.987 46.9782 110.078 47.1735L110.087 47.1947C110.311 47.68 109.918 48.2309 109.429 48.1148L109.408 48.1098C109.212 48.0631 109.007 48.1275 108.864 48.2811L108.848 48.2977C108.493 48.6793 107.889 48.4424 107.84 47.9021L107.838 47.8785C107.818 47.661 107.698 47.4692 107.519 47.3688L107.5 47.3579C107.056 47.1084 107.077 46.4112 107.535 46.1933L107.555 46.1837C107.739 46.096 107.87 45.913 107.902 45.6974L107.906 45.674C107.987 45.1383 108.604 44.9442 108.936 45.3499L108.95 45.3676C109.084 45.5308 109.285 45.6095 109.483 45.5767L109.505 45.5731Z" fill="#F7C977"/>
</g>
<path d="M48.6865 215.304H62.0945V216.984H48.6865V215.304ZM50.1905 217.928H60.4625V222.424H58.3345V219.608H50.1905V217.928ZM50.3505 212.792H60.6705V214.408H50.3505V212.792ZM50.3505 207.944H60.5585V209.56H52.4625V213.608H50.3505V207.944ZM51.8705 210.376H60.2225V211.928H51.8705V210.376ZM69.0053 208.04H70.8773V208.728C70.8773 211.576 68.6373 213.992 64.7493 214.568L63.9173 212.856C67.3253 212.408 69.0053 210.472 69.0053 208.728V208.04ZM69.4053 208.04H71.2613V208.728C71.2613 210.456 72.9573 212.408 76.3493 212.856L75.5333 214.568C71.6453 213.992 69.4053 211.576 69.4053 208.728V208.04ZM69.0213 217H71.1333V222.424H69.0213V217ZM63.4373 215.656H76.8293V217.384H63.4373V215.656ZM87.772 207.608H89.9V216.312H87.772V207.608ZM89.148 211.096H91.756V212.84H89.148V211.096ZM79.932 216.856H89.9V220.216H82.06V221.4H79.948V218.904H87.804V218.264H79.932V216.856ZM79.948 220.92H90.412V222.328H79.948V220.92ZM81.5 213.528H83.628V215.64H81.5V213.528ZM78.188 216.184L77.964 214.744C80.588 214.744 84.124 214.728 87.116 214.328L87.276 215.624C84.156 216.168 80.748 216.184 78.188 216.184ZM78.348 208.536H86.748V209.944H78.348V208.536ZM82.556 210.216C84.748 210.216 86.156 210.936 86.156 212.152C86.156 213.384 84.748 214.104 82.556 214.104C80.348 214.104 78.94 213.384 78.94 212.152C78.94 210.936 80.348 210.216 82.556 210.216ZM82.556 211.528C81.548 211.528 80.956 211.72 80.956 212.152C80.956 212.584 81.548 212.792 82.556 212.792C83.564 212.792 84.14 212.584 84.14 212.152C84.14 211.72 83.564 211.528 82.556 211.528ZM81.5 207.48H83.628V209.32H81.5V207.48ZM92.8748 214.568H106.283V216.264H92.8748V214.568ZM98.5228 212.344H100.635V215.224H98.5228V212.344ZM94.4908 211.672H104.763V213.352H94.4908V211.672ZM94.4908 208.248H104.683V209.912H96.6028V212.744H94.4908V208.248ZM99.5308 217C102.731 217 104.667 217.976 104.667 219.72C104.667 221.464 102.731 222.44 99.5308 222.44C96.3307 222.44 94.3788 221.464 94.3788 219.72C94.3788 217.976 96.3307 217 99.5308 217ZM99.5308 218.6C97.5468 218.6 96.5388 218.968 96.5388 219.72C96.5388 220.488 97.5468 220.824 99.5308 220.824C101.515 220.824 102.523 220.488 102.523 219.72C102.523 218.968 101.515 218.6 99.5308 218.6Z" fill="#99BF40"/>
<defs>
<filter id="filter0_d_307_1991" x="0" y="49.4673" width="154.223" height="126.533" filterUnits="userSpaceOnUse" color-interpolation-filters="sRGB">
<feFlood flood-opacity="0" result="BackgroundImageFix"/>
<feColorMatrix in="SourceAlpha" type="matrix" values="0 0 0 0 0 0 0 0 0 0 0 0 0 0 0 0 0 0 127 0" result="hardAlpha"/>
<feOffset dy="4"/>
<feGaussianBlur stdDeviation="2"/>
<feComposite in2="hardAlpha" operator="out"/>
<feColorMatrix type="matrix" values="0 0 0 0 0 0 0 0 0 0 0 0 0 0 0 0 0 0 0.25 0"/>
<feBlend mode="normal" in2="BackgroundImageFix" result="effect1_dropShadow_307_1991"/>
<feBlend mode="normal" in="SourceGraphic" in2="effect1_dropShadow_307_1991" result="shape"/>
</filter>
<filter id="filter1_d_307_1991" x="60.4485" y="0.641357" width="84.9276" height="56.408" filterUnits="userSpaceOnUse" color-interpolation-filters="sRGB">
<feFlood flood-opacity="0" result="BackgroundImageFix"/>
<feColorMatrix in="SourceAlpha" type="matrix" values="0 0 0 0 0 0 0 0 0 0 0 0 0 0 0 0 0 0 127 0" result="hardAlpha"/>
<feOffset dy="4"/>
<feGaussianBlur stdDeviation="2"/>
<feComposite in2="hardAlpha" operator="out"/>
<feColorMatrix type="matrix" values="0 0 0 0 0 0 0 0 0 0 0 0 0 0 0 0 0 0 0.25 0"/>
<feBlend mode="normal" in2="BackgroundImageFix" result="effect1_dropShadow_307_1991"/>
<feBlend mode="normal" in="SourceGraphic" in2="effect1_dropShadow_307_1991" result="shape"/>
</filter>
</defs>
</svg>
