<svg width="182" height="82" viewBox="0 0 182 82" fill="none" xmlns="http://www.w3.org/2000/svg">
<g filter="url(#filter0_d_92_4744)">
<path d="M64.2086 0.369093C64.795 0.0578239 65.5163 0.393862 65.6553 1.04304L66.3433 4.2571C66.3849 4.45124 66.4833 4.62861 66.626 4.76663L68.9888 7.05152C69.4661 7.51302 69.3694 8.30291 68.7949 8.63568L65.9508 10.2832C65.779 10.3828 65.6407 10.5312 65.5535 10.7095L64.1106 13.6628C63.8192 14.2593 63.0381 14.4114 62.5441 13.9679L60.0983 11.7721C59.9505 11.6394 59.7667 11.5538 59.5701 11.526L56.3155 11.0663C55.6582 10.9735 55.2721 10.2776 55.5412 9.67072L56.8738 6.66609C56.9543 6.48459 56.9789 6.28325 56.9446 6.0877L56.3761 2.85037C56.2612 2.19649 56.8037 1.61429 57.4641 1.68273L60.7334 2.02158C60.9309 2.04204 61.13 2.00326 61.3054 1.91018L64.2086 0.369093Z" fill="#7680E2"/>
<path d="M177.076 57.4714C177.727 57.6016 178.073 58.3183 177.77 58.9089L175.145 64.0189C175.055 64.1955 175.018 64.3951 175.042 64.5923L175.711 70.2978C175.788 70.9572 175.214 71.5075 174.558 71.4015L168.887 70.4844C168.691 70.4527 168.49 70.4801 168.31 70.563L163.09 72.9628C162.487 73.2401 161.786 72.8635 161.685 72.2074L160.804 66.5306C160.774 66.3344 160.686 66.1517 160.551 66.0058L156.656 61.7834C156.206 61.2955 156.347 60.5124 156.94 60.2129L162.067 57.6215C162.244 57.5319 162.39 57.3917 162.488 57.2185L165.3 52.2092C165.625 51.6303 166.413 51.523 166.881 51.9939L170.93 56.0692C171.07 56.21 171.249 56.306 171.443 56.3449L177.076 57.4714Z" fill="#7680E2"/>
<path d="M142.66 42.9354C143.492 42.809 144.098 43.7032 143.673 44.4291L142.304 46.7696C142.133 47.0617 142.121 47.4205 142.273 47.7231L143.489 50.147C143.866 50.8988 143.203 51.752 142.381 51.5723L139.732 50.9928C139.401 50.9204 139.057 51.0203 138.816 51.2582L136.886 53.1637C136.288 53.7547 135.271 53.3878 135.188 52.5508L134.921 49.8522C134.888 49.5154 134.686 49.2183 134.385 49.0627L131.977 47.8165C131.23 47.43 131.265 46.35 132.035 46.0124L134.519 44.9241C134.829 44.7883 135.049 44.5048 135.104 44.1708L135.545 41.4951C135.682 40.6651 136.72 40.3645 137.279 40.9929L139.082 43.0189C139.307 43.2718 139.644 43.3937 139.979 43.3428L142.66 42.9354Z" fill="#7680E2"/>
<path d="M49.1618 39.9361C48.9509 40.7504 47.8902 40.9563 47.3899 40.2802L45.7769 38.1002C45.5756 37.8281 45.2502 37.6763 44.9123 37.6968L42.2055 37.8614C41.366 37.9124 40.8423 36.9672 41.3307 36.2825L42.9056 34.0748C43.1022 33.7993 43.146 33.4429 43.0221 33.1279L42.0291 30.6045C41.7211 29.8218 42.4582 29.0316 43.2604 29.2846L45.8467 30.1002C46.1695 30.202 46.5219 30.1335 46.7832 29.9183L48.8763 28.1942C49.5256 27.6594 50.5048 28.1162 50.5121 28.9573L50.5357 31.669C50.5386 32.0075 50.7126 32.3216 50.998 32.5035L53.2846 33.9614C53.9938 34.4136 53.8619 35.4861 53.0643 35.753L50.4925 36.6133C50.1715 36.7207 49.9266 36.9832 49.8417 37.3109L49.1618 39.9361Z" fill="#7680E2"/>
<path d="M8.41449 40.6251C9.24606 40.4987 9.85267 41.393 9.42781 42.1189L9.40927 42.1506C9.23828 42.4427 9.2267 42.8015 9.3785 43.1041L9.39495 43.1369C9.77213 43.8887 9.10912 44.742 8.28743 44.5622L8.25158 44.5544C7.92089 44.482 7.57605 44.5819 7.3352 44.8198L7.30909 44.8456C6.71062 45.4366 5.69426 45.0697 5.61129 44.2327L5.60767 44.1962C5.57428 43.8593 5.37274 43.5622 5.07209 43.4067L5.03949 43.3898C4.29245 43.0033 4.3273 41.9233 5.09772 41.5857L5.13133 41.571C5.44139 41.4351 5.66166 41.1516 5.7167 40.8176L5.72267 40.7814C5.85944 39.9515 6.89735 39.6509 7.45646 40.2793L7.48085 40.3067C7.70587 40.5596 8.04354 40.6815 8.37821 40.6306L8.41449 40.6251Z" fill="#7680E2"/>
</g>
<defs>
<filter id="filter0_d_92_4744" x="0.499023" y="0.251694" width="181.382" height="80.8032" filterUnits="userSpaceOnUse" color-interpolation-filters="sRGB">
<feFlood flood-opacity="0" result="BackgroundImageFix"/>
<feColorMatrix in="SourceAlpha" type="matrix" values="0 0 0 0 0 0 0 0 0 0 0 0 0 0 0 0 0 0 127 0" result="hardAlpha"/>
<feOffset dy="4"/>
<feGaussianBlur stdDeviation="2"/>
<feComposite in2="hardAlpha" operator="out"/>
<feColorMatrix type="matrix" values="0 0 0 0 0 0 0 0 0 0 0 0 0 0 0 0 0 0 0.25 0"/>
<feBlend mode="normal" in2="BackgroundImageFix" result="effect1_dropShadow_92_4744"/>
<feBlend mode="normal" in="SourceGraphic" in2="effect1_dropShadow_92_4744" result="shape"/>
</filter>
</defs>
</svg>