<svg width="203" height="181" viewBox="0 0 203 181" fill="none" xmlns="http://www.w3.org/2000/svg">
<circle cx="37.5" cy="68.5" r="68.5" fill="#F5AA9E"/>
<path d="M89.6597 55.389C103.16 71.255 102.34 86.9052 88.0086 99.0999C73.6774 111.295 57.4648 110.138 43.964 94.2722C30.4633 78.4061 31.6952 54.9766 36.1643 38.1724C53.5689 36.5702 76.1589 39.5229 89.6597 55.389Z" fill="#B9C655"/>
<path d="M132.359 70.1382C128.058 90.5221 115.172 99.4411 96.7602 95.556C78.3482 91.6709 69.351 78.1344 73.6522 57.7505C77.9533 37.3666 97.247 24.017 113.277 17.2796C125.186 30.0729 136.661 49.7543 132.359 70.1382Z" fill="#C1D04B"/>
<circle cx="126" cy="149" r="77" fill="#F39186"/>
<circle cx="126" cy="149" r="61.6" fill="#F49F96"/>
<circle cx="13" cy="164" r="62" fill="white"/>
</svg>
