<svg width="146" height="225" viewBox="0 0 146 225" fill="none" xmlns="http://www.w3.org/2000/svg">
<circle cx="101" cy="168" r="87" fill="white"/>
<ellipse cx="59" cy="216" rx="59" ry="54" fill="#A3C3EB"/>
<circle cx="133" cy="63" r="63" fill="white"/>
<path d="M76.1139 218.78C88.1054 233.344 111.156 240.481 123.382 229.802C135.609 219.123 141.833 203.589 124.153 179.227C106.472 154.865 76.172 148.256 56.7625 148.889C52.5346 167.961 64.1224 204.216 76.1139 218.78Z" fill="#99BF40"/>
<path d="M98.1207 197.967C99.294 222.154 113.791 247.36 129.969 245.967C146.147 244.575 160.309 233.562 160.274 194.952C160.239 156.342 139.556 126.037 123.451 111.592C108.831 127.769 96.9474 173.779 98.1207 197.967Z" fill="#C1D04B"/>
</svg>
