<svg width="174" height="177" viewBox="0 0 174 177" fill="none" xmlns="http://www.w3.org/2000/svg">
<path d="M32.4803 145.482C29.9117 143.056 41.4122 111.33 49.5228 101.162C50.4561 99.9925 52.1252 100.009 53.1946 101.019L75.3868 121.974C76.5955 123.115 76.5635 125.063 75.2526 126.131C60.387 138.25 35.0989 147.955 32.4803 145.482Z" fill="url(#paint0_linear_11_584)"/>
<path d="M124.142 87.2579C122.571 88.878 120.931 90.5693 119.233 92.3678L91.6743 121.555C86.5397 126.993 78.0457 127.311 72.7024 122.266L53.6979 104.321C48.3546 99.2759 48.1853 90.7776 53.3199 85.3397L80.9773 56.0484C82.6387 54.2871 84.201 52.5882 85.6989 50.9593C93.4382 42.5429 99.4574 35.9972 108.546 32.3893C119.427 28.0693 135.976 26.0293 141.062 30.8317C146.148 35.6341 145.06 52.2724 141.371 63.384C138.29 72.6642 132.101 79.0487 124.142 87.2579Z" fill="white"/>
<path d="M31.2046 83.4151C29.5043 78.3182 54.4245 67.8532 67.7298 70.3438L51.7921 87.223C46.4033 84.1635 41.3329 83.9719 31.2046 83.4151Z" fill="#F46E5F"/>
<path d="M94.9961 143.648C100.182 145.054 109.201 119.574 105.952 106.434L90.0141 123.313C93.3775 128.517 93.8595 133.569 94.9961 143.648Z" fill="#F46E5F"/>
<path d="M73.8685 112.724C63.7828 123.406 53.2861 129.874 50.4236 127.171C47.5611 124.468 53.4167 113.618 63.5024 102.936C73.5882 92.2546 84.0848 85.7866 86.9473 88.4894C89.8098 91.1922 83.9542 102.042 73.8685 112.724Z" fill="#F46E5F"/>
<path d="M123.056 28.6158C129.056 27.6273 133.375 27.8972 136.821 28.7472C138.411 29.1395 140.025 29.8529 141.062 30.8317C141.968 31.6872 142.353 32.4985 142.779 33.3501C143.18 34.1518 143.653 35.5905 143.989 37.4223C144.588 40.6848 144.733 44.9408 144.307 48.6809L123.056 28.6158Z" fill="#1658B6"/>
<path d="M120.722 73.486C115.129 79.4094 105.876 79.7561 100.056 74.2603C94.2355 68.7646 94.0511 59.5075 99.6441 53.5841C105.237 47.6606 114.49 47.314 120.31 52.8097C126.13 58.3055 126.315 67.5626 120.722 73.486Z" fill="#1658B6"/>
<path d="M117.957 70.8759C113.831 75.2456 107.006 75.5014 102.712 71.4471C98.4184 67.3929 98.2824 60.5639 102.408 56.1941C106.534 51.8244 113.36 51.5687 117.654 55.6229C121.947 59.6772 122.083 66.5062 117.957 70.8759Z" fill="#A3C3EB"/>
<defs>
<linearGradient id="paint0_linear_11_584" x1="141.128" y1="30.8942" x2="32.7193" y2="145.708" gradientUnits="userSpaceOnUse">
<stop stop-color="#F2D56E"/>
<stop offset="1" stop-color="#F3B14E"/>
</linearGradient>
</defs>
</svg>
