<svg width="162" height="187" viewBox="0 0 162 187" fill="none" xmlns="http://www.w3.org/2000/svg">
<ellipse cx="85.5" cy="29.5" rx="85.5" ry="83.5" fill="white"/>
<circle cx="142" cy="113" r="62" fill="white"/>
<path d="M146.486 148.805C155.654 137.939 164.523 135.255 171.265 140.944C178.007 146.632 177.151 156.078 167.983 166.944C158.815 177.81 141.245 185.222 131.766 186.066C132.664 175.456 137.318 159.671 146.486 148.805Z" fill="#99BF40"/>
<path d="M159.978 121.089C173.905 123.946 180.503 130.453 178.73 139.094C176.957 147.735 168.252 151.5 154.325 148.642C140.398 145.785 125.487 133.897 120.215 125.975C129.962 121.691 146.051 118.231 159.978 121.089Z" fill="#C1D04B"/>
</svg>