<svg width="253" height="287" viewBox="0 0 253 287" fill="none" xmlns="http://www.w3.org/2000/svg">
<circle cx="203" cy="67" r="50" fill="#1658B6"/>
<path d="M193 38.5C193 79.6452 155.392 113 109 113C62.6081 113 25 79.6452 25 38.5C25 -2.64521 62.6081 -36 109 -36C155.392 -36 193 -2.64521 193 38.5Z" fill="#5F95E8"/>
<path d="M177.88 38.5C177.88 71.4162 147.794 98.1 110.68 98.1C73.5665 98.1 43.48 71.4162 43.48 38.5C43.48 5.58383 73.5665 -21.1 110.68 -21.1C147.794 -21.1 177.88 5.58383 177.88 38.5Z" fill="#A3C3EB"/>
<path d="M-25.7259 198.06C-51.7662 164.8 -48.2091 132.69 -17.116 108.347C13.9771 84.0039 47.375 87.1805 73.4153 120.441C99.4556 153.702 100.101 217.329 88.8597 251.629C51.2509 248.289 0.314373 231.321 -25.7259 198.06Z" fill="#99BF40"/>
<path d="M-9.42891 117.533C-55.3127 84.1893 -67.1103 47.6852 -43.8961 15.7403C-20.6819 -16.2046 18.7063 -17.6679 64.5902 15.6756C110.474 49.0191 142.565 120.198 146.74 160.311C102.503 162.225 36.4549 150.876 -9.42891 117.533Z" fill="#B9C655"/>
</svg>
