<svg width="74" height="102" viewBox="0 0 111 153" fill="none" xmlns="http://www.w3.org/2000/svg">
<path d="M78.1518 0C95.8249 0 110.152 14.3269 110.152 32V80.6608C110.152 120.258 78.0521 152.357 38.4552 152.357C-1.14167 152.357 -33.2413 120.258 -33.2413 80.6608V32C-33.2413 14.3269 -18.9144 0 -1.24132 0L78.1518 0Z" fill="#7E63F0CC" fill-opacity="0.8"/>
<ellipse cx="50.0069" cy="35.007" rx="7.77333" ry="7.7931" transform="rotate(44.6189 50.0069 35.007)" fill="black"/>
<path d="M78.5399 66.4669C75.5168 69.5304 70.5889 69.5695 67.5331 66.5541C64.4773 63.5387 64.4508 58.6107 67.4739 55.5471C70.4969 52.4835 75.4248 52.4445 78.4807 55.4599C81.5365 58.4753 81.563 63.4033 78.5399 66.4669Z" fill="black"/>
<path d="M32.3498 25C18.5501 29.9679 29.0504 59.1354 42.8501 54.1675" stroke="black" stroke-width="5" stroke-linecap="round"/>
</svg>
