<svg width="98" height="400" viewBox="0 10 146 605" fill="none" xmlns="http://www.w3.org/2000/svg">
<g filter="url(#filter0_d_92_1902)">
<rect width="179.241" height="102.608" rx="40" transform="matrix(-1 0 0 1 190.241 277.512)" fill="#01C4CA" fill-opacity="0.8"/>
<ellipse cx="7.77333" cy="7.7931" rx="7.77333" ry="7.7931" transform="matrix(0 1 1 0 28.4143 305)" fill="black"/>
<ellipse cx="7.77333" cy="7.7931" rx="7.77333" ry="7.7931" transform="matrix(0 1 1 0 47.4141 332)" fill="black"/>
<path d="M51.3778 303.346C53.6564 301.334 59.5018 300.814 61.0005 304C62.1209 306.381 58.702 311.937 61.0003 314.5C63.4226 317.202 70.2562 314.573 72.9473 316.5C76.3852 318.963 75.2408 325.808 72.9473 327.834" stroke="black" stroke-width="5" stroke-linecap="round"/>
<path d="M78.8486 355.245C61.1755 355.245 46.8486 369.572 46.8486 387.245L46.8486 435.906C46.8486 475.503 78.9483 507.603 118.545 507.603C158.142 507.603 190.242 475.503 190.242 435.906V387.245C190.242 369.572 175.915 355.245 158.242 355.245H78.8486Z" fill="#EE4F00" fill-opacity="0.8"/>
<ellipse cx="7.77333" cy="7.7931" rx="7.77333" ry="7.7931" transform="matrix(0 1 1 0 65.4141 387)" fill="black"/>
<ellipse cx="7.77333" cy="7.7931" rx="7.77333" ry="7.7931" transform="matrix(0 1 1 0 54.4141 415)" fill="black"/>
<path d="M90.4841 397.435C89.8135 404.851 82.3056 430.276 84.966 430.304C87.6263 430.333 105.295 410.536 101.073 398.812C96.8512 387.088 91.1547 390.02 90.4841 397.435Z" fill="black" stroke="black" stroke-width="5" stroke-linecap="round"/>
<path d="M190.242 139.6C190.242 130.763 183.078 123.6 174.242 123.6L71.2624 123.6C49.171 123.6 31.2624 141.509 31.2624 163.6V186.208C31.2624 208.299 49.171 226.208 71.2624 226.208H174.242C183.078 226.208 190.242 219.045 190.242 210.208V139.6Z" fill="#F3A306" fill-opacity="0.8"/>
<ellipse cx="7.77333" cy="7.7931" rx="7.77333" ry="7.7931" transform="matrix(0 1 1 0 66.4141 154)" fill="black"/>
<ellipse cx="7.77333" cy="7.7931" rx="7.77333" ry="7.7931" transform="matrix(0 1 1 0 36.4141 159)" fill="black"/>
<path d="M56.7749 185.994C56.8606 189.006 60.4089 191.348 64.7003 191.226C68.9916 191.104 72.401 188.564 72.3153 185.552C72.2296 182.54 68.6813 180.198 64.39 180.32C60.0986 180.442 56.6892 182.983 56.7749 185.994Z" fill="black"/>
<path d="M78.8486 7C61.1755 7 46.8486 21.3269 46.8486 39L46.8486 87.6608C46.8486 127.258 78.9483 159.357 118.545 159.357C158.142 159.357 190.242 127.258 190.242 87.6608V39C190.242 21.3269 175.915 7 158.242 7L78.8486 7Z" fill="#F55C98" fill-opacity="0.8"/>
<ellipse cx="7.77333" cy="7.7931" rx="7.77333" ry="7.7931" transform="matrix(-0.711795 0.702387 0.702387 0.711795 107.053 31)" fill="black"/>
<path d="M78.4605 73.4669C81.4836 76.5304 86.4115 76.5695 89.4673 73.5541C92.5231 70.5387 92.5496 65.6107 89.5265 62.5471C86.5034 59.4835 81.5755 59.4445 78.5197 62.4599C75.4639 65.4753 75.4374 70.4033 78.4605 73.4669Z" fill="black"/>
<path d="M116.5 53.5C132.071 59.1055 120.571 83.6055 105 78L116.5 53.5Z" fill="black" stroke="black" stroke-width="5" stroke-linecap="round"/>
<rect width="143.029" height="102.869" rx="40" transform="matrix(0 1 1 0 87.373 185.787)" fill="#7E63F0" fill-opacity="0.8"/>
<ellipse cx="7.77333" cy="7.7931" rx="7.77333" ry="7.7931" transform="matrix(0 1 1 0 99 228)" fill="black"/>
<path d="M125.48 244C139.508 244 139.508 267.32 125.48 267.32" stroke="black" stroke-width="5" stroke-linecap="round"/>
<path d="M107.208 267.421C117.598 267.421 117.598 284.523 107.208 284.523" stroke="black" stroke-width="5"/>
<ellipse cx="63.7413" cy="63.9035" rx="63.7413" ry="63.9035" transform="matrix(0 1 1 0 62.4346 462.517)" fill="#8ACDF4" fill-opacity="0.8"/>
<ellipse cx="7.77333" cy="7.7931" rx="7.77333" ry="7.7931" transform="matrix(0 1 1 0 88.9312 521.595)" fill="black"/>
<ellipse cx="7.77333" cy="7.7931" rx="7.77333" ry="7.7931" transform="matrix(0 1 1 0 98.2827 552.688)" fill="black"/>
<path d="M114.302 529.566C127.576 525.042 135.135 547.11 121.861 551.634L114.302 529.566Z" fill="black" stroke="black" stroke-width="5" stroke-linecap="round"/>
</g>
<defs>
<filter id="filter0_d_92_1902" x="0.399755" y="0.4" width="200.442" height="604.2" filterUnits="userSpaceOnUse" color-interpolation-filters="sRGB">
<feFlood flood-opacity="0" result="BackgroundImageFix"/>
<feColorMatrix in="SourceAlpha" type="matrix" values="0 0 0 0 0 0 0 0 0 0 0 0 0 0 0 0 0 0 127 0" result="hardAlpha"/>
<feOffset dy="4"/>
<feGaussianBlur stdDeviation="5.3"/>
<feComposite in2="hardAlpha" operator="out"/>
<feColorMatrix type="matrix" values="0 0 0 0 0 0 0 0 0 0 0 0 0 0 0 0 0 0 0.25 0"/>
<feBlend mode="normal" in2="BackgroundImageFix" result="effect1_dropShadow_92_1902"/>
<feBlend mode="normal" in="SourceGraphic" in2="effect1_dropShadow_92_1902" result="shape"/>
</filter>
</defs>
</svg>
