<svg width="100%" height="70%" viewBox="0 0 375 515" preserveAspectRatio="none" fill="none" xmlns="http://www.w3.org/2000/svg">
<path d="M201 70C138.5 32 2.34634 47.9469 0 82.5V436L374.5 441.5V1.5C321.475 52.7645 263.5 108 201 70Z" fill="#F5DBD0"/>
<path d="M374.5 420C294.99 430.659 250.697 410.186 180 315C180 315 141.5 254.5 90 260.75C38.5 267 0 206.5 0 206.5V515.5H374.5V420Z" fill="#F5D6CA"/>
<path d="M201 70C138.5 32 2.34634 47.9469 0 82.5V436L374.5 441.5V1.5C321.475 52.7645 263.5 108 201 70Z" stroke="#F5D6CA"/>
<path d="M374.5 420C294.99 430.659 250.697 410.186 180 315C180 315 141.5 254.5 90 260.75C38.5 267 0 206.5 0 206.5V515.5H374.5V420Z" stroke="#F5D6CA"/>
</svg>
