<svg width="64" height="64" viewBox="0 0 64 64" fill="none" xmlns="http://www.w3.org/2000/svg">
<path d="M0 18.2857C0 8.18679 8.18679 0 18.2857 0H32C49.6731 0 64 14.3269 64 32V32C64 49.6731 49.6731 64 32 64H18.2857C8.18679 64 0 55.8132 0 45.7143V18.2857Z" fill="#F55C98" fill-opacity="0.8"/>
<ellipse cx="19.122" cy="37.2124" rx="3.26531" ry="3.47826" fill="black"/>
<path d="M40.5228 37.2125C40.5228 39.1335 39.0609 40.6907 37.2575 40.6907C35.4541 40.6907 33.9922 39.1335 33.9922 37.2125C33.9922 35.2915 35.4541 33.7342 37.2575 33.7342C39.0609 33.7342 40.5228 35.2915 40.5228 37.2125Z" fill="black"/>
<path d="M23.1837 45.9129C23.1837 52.1738 32.9796 52.1738 32.9796 45.9129" stroke="black" stroke-width="5" stroke-linecap="round"/>
</svg>
