<svg width="512" height="512" viewBox="0 0 512 512" fill="none" xmlns="http://www.w3.org/2000/svg">
<path d="M0 48C0 21.4903 21.4903 0 48 0H272C404.548 0 512 107.452 512 240V272C512 404.548 404.548 512 272 512H48C21.4903 512 0 490.51 0 464V48Z" fill="#F55C98" fill-opacity="0.8"/>
<ellipse cx="152.976" cy="297.699" rx="26.1224" ry="27.8261" fill="black"/>
<path d="M324.182 297.7C324.182 313.068 312.487 325.526 298.06 325.526C283.633 325.526 271.938 313.068 271.938 297.7C271.938 282.332 283.633 269.874 298.06 269.874C312.487 269.874 324.182 282.332 324.182 297.7Z" fill="black"/>
<path d="M185.47 367.304C185.47 417.391 263.837 417.391 263.837 367.304" stroke="black" stroke-width="20" stroke-linecap="round"/>
</svg>
