<svg width="192" height="192" viewBox="0 0 192 192" fill="none" xmlns="http://www.w3.org/2000/svg">
<path d="M0 32C0 14.3269 14.3269 0 32 0H112C156.183 0 192 35.8172 192 80V112C192 156.183 156.183 192 112 192H32C14.3269 192 0 177.673 0 160V32Z" fill="#F55C98" fill-opacity="0.8"/>
<ellipse cx="57.366" cy="111.637" rx="9.79592" ry="10.4348" fill="black"/>
<path d="M121.568 111.637C121.568 117.4 117.183 122.072 111.772 122.072C106.362 122.072 101.977 117.4 101.977 111.637C101.977 105.874 106.362 101.203 111.772 101.203C117.183 101.203 121.568 105.874 121.568 111.637Z" fill="black"/>
<path d="M69.5511 137.739C69.5511 156.521 98.9389 156.521 98.9389 137.739" stroke="black" stroke-width="10" stroke-linecap="round"/>
</svg>
