<svg viewBox="0 0 375 250" fill="none" xmlns="http://www.w3.org/2000/svg">
    <rect y="184" width="375" height="484" fill="white"/>
    <g filter="url(#filter0_d_27_625)">
    <path d="M234.584 99.2408C224.584 104.241 227 127.241 211 151.241C195 175.241 196.5 171.241 196.5 171.241L274 163.241C274 163.241 267.531 161.741 252.5 143.241C237.469 124.741 240.905 96.0803 234.584 99.2408Z" fill="white"/>
    <ellipse cx="18" cy="19.5" rx="18" ry="19.5" transform="matrix(-1 0 0 1 398 125.241)" fill="white"/>
    <circle cx="7" cy="7" r="7" transform="matrix(-1 0 0 1 353 143)" fill="white"/>
    <ellipse cx="11.5" cy="8" rx="11.5" ry="8" transform="matrix(-1 0 0 1 312 149)" fill="white"/>
    <ellipse cx="11.5" cy="8" rx="11.5" ry="8" transform="matrix(-1 0 0 1 305 144)" fill="white"/>
    <ellipse cx="14" cy="12" rx="14" ry="12" transform="matrix(-1 0 0 1 291 148)" fill="white"/>
    <ellipse cx="18" cy="19.5" rx="18" ry="19.5" transform="matrix(-1 0 0 1 375 144.241)" fill="white"/>
    <ellipse cx="29" cy="30" rx="29" ry="30" transform="matrix(-1 0 0 1 397 160.241)" fill="white"/>
    <ellipse cx="44" cy="37" rx="44" ry="37" transform="matrix(-1 0 0 1 328 153.241)" fill="white"/>
    <g filter="url(#filter1_d_27_625)">
    <path fill-rule="evenodd" clip-rule="evenodd" d="M292.326 167.857C297.254 167.075 301 163.183 301 158.5C301 153.253 296.299 149 290.5 149C286.007 149 282.173 151.553 280.674 155.143C275.746 155.925 272 159.817 272 164.5C272 169.747 276.701 174 282.5 174C286.993 174 290.827 171.447 292.326 167.857Z" fill="white"/>
    </g>
    <ellipse cx="39" cy="37" rx="39" ry="37" transform="matrix(-1 0 0 1 273 163.241)" fill="white"/>
    <ellipse cx="39" cy="37" rx="39" ry="37" transform="matrix(-1 0 0 1 211 168)" fill="white"/>
    <ellipse cx="39" cy="37" rx="39" ry="37" transform="matrix(-1 0 0 1 165 163)" fill="white"/>
    <g filter="url(#filter2_d_27_625)">
    <ellipse cx="25" cy="29" rx="25" ry="29" transform="matrix(-1 0 0 1 298 165)" fill="white"/>
    </g>
    <g filter="url(#filter3_d_27_625)">
    <ellipse cx="25" cy="29" rx="25" ry="29" transform="matrix(-1 0 0 1 314 177)" fill="white"/>
    </g>
    <ellipse cx="24" cy="22.5" rx="24" ry="22.5" transform="matrix(-1 0 0 1 294 180)" fill="white"/>
    <ellipse cx="24" cy="22.5" rx="24" ry="22.5" transform="matrix(-1 0 0 1 274 168)" fill="white"/>
    <ellipse cx="25" cy="28" rx="25" ry="28" transform="matrix(-1 0 0 1 226 156.241)" fill="white"/>
    <ellipse cx="25" cy="28" rx="25" ry="28" transform="matrix(-1 0 0 1 120 133)" fill="white"/>
    <ellipse cx="9" cy="7.5" rx="9" ry="7.5" transform="matrix(-0.786714 0.617318 0.617318 0.786714 80.7402 131)" fill="white"/>
    <ellipse cx="21" cy="17.5" rx="21" ry="17.5" transform="matrix(-1 0 0 1 150 125.241)" fill="white"/>
    <ellipse cx="21" cy="17.5" rx="21" ry="17.5" transform="matrix(-1 0 0 1 141 122)" fill="white"/>
    <ellipse cx="10.5" cy="12" rx="10.5" ry="12" transform="matrix(-1 0 0 1 126 116)" fill="white"/>
    <circle cx="9" cy="9" r="9" transform="matrix(-1 0 0 1 162 139)" fill="white"/>
    <ellipse cx="21" cy="17.5" rx="21" ry="17.5" transform="matrix(-1 0 0 1 139 149.241)" fill="white"/>
    <ellipse cx="31.5" cy="27.5" rx="31.5" ry="27.5" transform="matrix(-1 0 0 1 189 144.241)" fill="white"/>
    <circle cx="27.5" cy="27.5" r="27.5" transform="matrix(-1 0 0 1 360 160.241)" fill="white"/>
    <ellipse cx="41" cy="39.5" rx="41" ry="39.5" transform="matrix(-1 0 0 1 60 116.241)" fill="white"/>
    <g filter="url(#filter4_d_27_625)">
    <path fill-rule="evenodd" clip-rule="evenodd" d="M91.8116 156.317C91.9039 152.906 94.5942 149.1 98.8932 146.82C103.384 144.438 108.269 144.445 111.102 146.543C115.532 145.455 119.706 146.579 121.328 149.638C123.398 153.541 120.527 159.117 114.916 162.093C111.375 163.971 107.589 164.364 104.757 163.418C106.831 169.067 103.773 175.926 97.4342 179.287C90.6032 182.91 82.5486 181.1 79.4437 175.245C76.3387 169.39 79.3592 161.706 86.1901 158.084C88.0158 157.116 89.9289 156.536 91.8116 156.317Z" fill="white"/>
    </g>
    <g filter="url(#filter5_d_27_625)">
    <path fill-rule="evenodd" clip-rule="evenodd" d="M140.908 157.525C143.922 155.925 148.56 156.392 152.661 159.011C156.945 161.747 159.345 166.003 158.914 169.502C162.042 172.821 163.119 177.007 161.256 179.925C158.878 183.649 152.611 183.896 147.258 180.478C143.88 178.321 141.673 175.219 141.102 172.288C137.206 176.875 129.732 177.591 123.684 173.729C117.168 169.568 114.777 161.666 118.344 156.08C121.911 150.495 130.085 149.34 136.602 153.502C138.343 154.614 139.79 155.994 140.908 157.525Z" fill="white"/>
    </g>
    <g filter="url(#filter6_d_27_625)">
    <path fill-rule="evenodd" clip-rule="evenodd" d="M126.471 146.333C129.824 150.029 135.132 151.033 139.051 148.468C143.441 145.595 144.426 139.333 141.251 134.48C138.791 130.721 134.555 128.911 130.73 129.622C127.378 125.926 122.07 124.923 118.151 127.487C113.761 130.36 112.776 136.622 115.951 141.475C118.411 145.234 122.646 147.044 126.471 146.333Z" fill="white"/>
    </g>
    <ellipse cx="47" cy="39.5" rx="47" ry="39.5" transform="matrix(-1 0 0 1 126 151.241)" fill="white"/>
    <ellipse cx="20" cy="21" rx="20" ry="21" transform="matrix(-1 0 0 1 83 147)" fill="white"/>
    <ellipse cx="20" cy="21" rx="20" ry="21" transform="matrix(-1 0 0 1 60 117)" fill="white"/>
    <ellipse cx="20" cy="21" rx="20" ry="21" transform="matrix(-1 0 0 1 95 119)" fill="white"/>
    <circle cx="10" cy="10" r="10" transform="matrix(-1 0 0 1 58 113)" fill="white"/>
    <circle cx="10" cy="10" r="10" transform="matrix(-1 0 0 1 178 139)" fill="white"/>
    <circle cx="7.5" cy="7.5" r="7.5" transform="matrix(-1 0 0 1 174 135)" fill="white"/>
    <ellipse cx="14.5" cy="10" rx="14.5" ry="10" transform="matrix(-1 0 0 1 230 150)" fill="white"/>
    <g filter="url(#filter7_d_27_625)">
    <ellipse cx="22" cy="18.5" rx="22" ry="18.5" transform="matrix(-1 0 0 1 239 160)" fill="white"/>
    </g>
    <g filter="url(#filter8_d_27_625)">
    <ellipse cx="22" cy="23" rx="22" ry="23" transform="matrix(-1 0 0 1 195 181)" fill="white"/>
    </g>
    <g filter="url(#filter9_d_27_625)">
    <ellipse cx="22" cy="23" rx="22" ry="23" transform="matrix(-1 0 0 1 109 158)" fill="white"/>
    </g>
    <ellipse cx="35" cy="23" rx="35" ry="23" transform="matrix(-1 0 0 1 188 188)" fill="white"/>
    <g filter="url(#filter10_d_27_625)">
    <path fill-rule="evenodd" clip-rule="evenodd" d="M59.1568 157.406C66.9043 162.027 76.2269 161.305 81.1049 155.292C86.5698 148.556 84.3871 137.73 76.2298 131.112C69.9098 125.985 61.8577 124.888 56.0095 127.786C48.262 123.165 38.9395 123.888 34.0614 129.9C28.5965 136.637 30.7792 147.462 38.9366 154.08C45.2565 159.207 53.3086 160.305 59.1568 157.406Z" fill="white"/>
    </g>
    <g filter="url(#filter11_d_27_625)">
    <ellipse cx="15.5" cy="17" rx="15.5" ry="17" transform="matrix(-1 0 0 1 255 172)" fill="white"/>
    </g>
    <g filter="url(#filter12_d_27_625)">
    <path fill-rule="evenodd" clip-rule="evenodd" d="M347.673 185.957C354.579 185.451 360 180.515 360 174.5C360 168.149 353.956 163 346.5 163C341.854 163 337.756 164.999 335.327 168.043C328.421 168.549 323 173.485 323 179.5C323 185.851 329.044 191 336.5 191C341.146 191 345.244 189.001 347.673 185.957Z" fill="white"/>
    </g>
    </g>
    <path d="M234.255 123C231.625 123 221.635 98.8812 220.829 88.7853C220.736 87.6235 221.648 86.7404 222.743 86.7404L245.465 86.7407C246.703 86.7407 247.681 87.8609 247.517 89.1672C245.664 103.98 236.937 123 234.255 123Z" fill="url(#paint0_linear_27_625)"/>
    <path d="M254.112 41.0062C254.09 42.7638 254.067 44.5985 254.067 46.5253L254.067 77.7933C254.067 83.6189 249.632 88.3415 244.161 88.3415H224.703C219.232 88.3415 214.797 83.6189 214.797 77.7933V46.4134C214.797 44.5274 214.774 42.7297 214.752 41.0061C214.64 32.1007 214.552 25.1745 217.628 18.2711C221.31 10.0051 229.225 -8.82558e-07 234.432 0C239.64 8.82558e-07 247.555 10.0051 251.237 18.2711C254.312 25.1746 254.225 32.1007 254.112 41.0062Z" fill="white"/>
    <path d="M201.843 88.5299C198.318 86.5524 206.458 67.2988 214.933 61.5942L214.933 79.6769C210.452 80.8259 207.61 83.4289 201.843 88.5299Z" fill="#F46E5F"/>
    <path d="M267.157 88.5299C270.682 86.5524 262.542 67.2988 254.067 61.5942L254.067 79.6769C258.548 80.8259 261.39 83.4289 267.157 88.5299Z" fill="#F46E5F"/>
    <path d="M239.916 82.3139C239.916 93.7571 237.54 103.034 234.609 103.034C231.678 103.034 229.302 93.7571 229.302 82.3139C229.302 70.8707 231.678 61.5942 234.609 61.5942C237.54 61.5942 239.916 70.8707 239.916 82.3139Z" fill="#F46E5F"/>
    <path d="M223.553 8.37403C226.296 4.60553 228.772 2.4487 231.071 1.08739C232.133 0.459097 233.371 0 234.432 0C235.36 1.57219e-07 235.983 0.253481 236.649 0.508126C237.275 0.747849 238.267 1.30961 239.385 2.16723C241.377 3.69469 243.631 6.02757 245.311 8.37403H223.553Z" fill="#1658B6"/>
    <path d="M245.223 35.0352C245.223 41.381 240.392 46.5253 234.432 46.5253C228.473 46.5253 223.642 41.381 223.642 35.0352C223.642 28.6894 228.473 23.5452 234.432 23.5452C240.392 23.5452 245.223 28.6894 245.223 35.0352Z" fill="#1658B6"/>
    <path d="M242.392 35.0352C242.392 39.7165 238.828 43.5115 234.432 43.5115C230.036 43.5115 226.472 39.7165 226.472 35.0352C226.472 30.3539 230.036 26.559 234.432 26.559C238.828 26.559 242.392 30.3539 242.392 35.0352Z" fill="#A3C3EB"/>
    <defs>
    <filter id="filter0_d_27_625" x="-26" y="93" width="428" height="151" filterUnits="userSpaceOnUse" color-interpolation-filters="sRGB">
    <feFlood flood-opacity="0" result="BackgroundImageFix"/>
    <feColorMatrix in="SourceAlpha" type="matrix" values="0 0 0 0 0 0 0 0 0 0 0 0 0 0 0 0 0 0 127 0" result="hardAlpha"/>
    <feOffset dy="-2"/>
    <feGaussianBlur stdDeviation="2"/>
    <feComposite in2="hardAlpha" operator="out"/>
    <feColorMatrix type="matrix" values="0 0 0 0 0 0 0 0 0 0 0 0 0 0 0 0 0 0 0.25 0"/>
    <feBlend mode="normal" in2="BackgroundImageFix" result="effect1_dropShadow_27_625"/>
    <feBlend mode="normal" in="SourceGraphic" in2="effect1_dropShadow_27_625" result="shape"/>
    </filter>
    <filter id="filter1_d_27_625" x="272" y="147" width="31" height="27" filterUnits="userSpaceOnUse" color-interpolation-filters="sRGB">
    <feFlood flood-opacity="0" result="BackgroundImageFix"/>
    <feColorMatrix in="SourceAlpha" type="matrix" values="0 0 0 0 0 0 0 0 0 0 0 0 0 0 0 0 0 0 127 0" result="hardAlpha"/>
    <feOffset dx="1" dy="-1"/>
    <feGaussianBlur stdDeviation="0.5"/>
    <feComposite in2="hardAlpha" operator="out"/>
    <feColorMatrix type="matrix" values="0 0 0 0 0.639216 0 0 0 0 0.764706 0 0 0 0 0.921569 0 0 0 0.25 0"/>
    <feBlend mode="normal" in2="BackgroundImageFix" result="effect1_dropShadow_27_625"/>
    <feBlend mode="normal" in="SourceGraphic" in2="effect1_dropShadow_27_625" result="shape"/>
    </filter>
    <filter id="filter2_d_27_625" x="247" y="163" width="52" height="60" filterUnits="userSpaceOnUse" color-interpolation-filters="sRGB">
    <feFlood flood-opacity="0" result="BackgroundImageFix"/>
    <feColorMatrix in="SourceAlpha" type="matrix" values="0 0 0 0 0 0 0 0 0 0 0 0 0 0 0 0 0 0 127 0" result="hardAlpha"/>
    <feOffset dy="-1"/>
    <feGaussianBlur stdDeviation="0.5"/>
    <feComposite in2="hardAlpha" operator="out"/>
    <feColorMatrix type="matrix" values="0 0 0 0 0.639216 0 0 0 0 0.764706 0 0 0 0 0.921569 0 0 0 0.25 0"/>
    <feBlend mode="normal" in2="BackgroundImageFix" result="effect1_dropShadow_27_625"/>
    <feBlend mode="normal" in="SourceGraphic" in2="effect1_dropShadow_27_625" result="shape"/>
    </filter>
    <filter id="filter3_d_27_625" x="263" y="175" width="52" height="60" filterUnits="userSpaceOnUse" color-interpolation-filters="sRGB">
    <feFlood flood-opacity="0" result="BackgroundImageFix"/>
    <feColorMatrix in="SourceAlpha" type="matrix" values="0 0 0 0 0 0 0 0 0 0 0 0 0 0 0 0 0 0 127 0" result="hardAlpha"/>
    <feOffset dy="-1"/>
    <feGaussianBlur stdDeviation="0.5"/>
    <feComposite in2="hardAlpha" operator="out"/>
    <feColorMatrix type="matrix" values="0 0 0 0 0.639216 0 0 0 0 0.764706 0 0 0 0 0.921569 0 0 0 0.25 0"/>
    <feBlend mode="normal" in2="BackgroundImageFix" result="effect1_dropShadow_27_625"/>
    <feBlend mode="normal" in="SourceGraphic" in2="effect1_dropShadow_27_625" result="shape"/>
    </filter>
    <filter id="filter4_d_27_625" x="77.2225" y="143" width="45.7775" height="38.1538" filterUnits="userSpaceOnUse" color-interpolation-filters="sRGB">
    <feFlood flood-opacity="0" result="BackgroundImageFix"/>
    <feColorMatrix in="SourceAlpha" type="matrix" values="0 0 0 0 0 0 0 0 0 0 0 0 0 0 0 0 0 0 127 0" result="hardAlpha"/>
    <feOffset dy="-1"/>
    <feGaussianBlur stdDeviation="0.5"/>
    <feComposite in2="hardAlpha" operator="out"/>
    <feColorMatrix type="matrix" values="0 0 0 0 0.639216 0 0 0 0 0.764706 0 0 0 0 0.921569 0 0 0 0.25 0"/>
    <feBlend mode="normal" in2="BackgroundImageFix" result="effect1_dropShadow_27_625"/>
    <feBlend mode="normal" in="SourceGraphic" in2="effect1_dropShadow_27_625" result="shape"/>
    </filter>
    <filter id="filter5_d_27_625" x="115.689" y="149.003" width="47.4825" height="33.8855" filterUnits="userSpaceOnUse" color-interpolation-filters="sRGB">
    <feFlood flood-opacity="0" result="BackgroundImageFix"/>
    <feColorMatrix in="SourceAlpha" type="matrix" values="0 0 0 0 0 0 0 0 0 0 0 0 0 0 0 0 0 0 127 0" result="hardAlpha"/>
    <feOffset dy="-1"/>
    <feGaussianBlur stdDeviation="0.5"/>
    <feComposite in2="hardAlpha" operator="out"/>
    <feColorMatrix type="matrix" values="0 0 0 0 0.639216 0 0 0 0 0.764706 0 0 0 0 0.921569 0 0 0 0.25 0"/>
    <feBlend mode="normal" in2="BackgroundImageFix" result="effect1_dropShadow_27_625"/>
    <feBlend mode="normal" in="SourceGraphic" in2="effect1_dropShadow_27_625" result="shape"/>
    </filter>
    <filter id="filter6_d_27_625" x="112.089" y="124.061" width="31.0234" height="25.8332" filterUnits="userSpaceOnUse" color-interpolation-filters="sRGB">
    <feFlood flood-opacity="0" result="BackgroundImageFix"/>
    <feColorMatrix in="SourceAlpha" type="matrix" values="0 0 0 0 0 0 0 0 0 0 0 0 0 0 0 0 0 0 127 0" result="hardAlpha"/>
    <feOffset dx="-1" dy="-1"/>
    <feGaussianBlur stdDeviation="0.5"/>
    <feComposite in2="hardAlpha" operator="out"/>
    <feColorMatrix type="matrix" values="0 0 0 0 0.639216 0 0 0 0 0.764706 0 0 0 0 0.921569 0 0 0 0.25 0"/>
    <feBlend mode="normal" in2="BackgroundImageFix" result="effect1_dropShadow_27_625"/>
    <feBlend mode="normal" in="SourceGraphic" in2="effect1_dropShadow_27_625" result="shape"/>
    </filter>
    <filter id="filter7_d_27_625" x="194" y="158" width="46" height="39" filterUnits="userSpaceOnUse" color-interpolation-filters="sRGB">
    <feFlood flood-opacity="0" result="BackgroundImageFix"/>
    <feColorMatrix in="SourceAlpha" type="matrix" values="0 0 0 0 0 0 0 0 0 0 0 0 0 0 0 0 0 0 127 0" result="hardAlpha"/>
    <feOffset dy="-1"/>
    <feGaussianBlur stdDeviation="0.5"/>
    <feComposite in2="hardAlpha" operator="out"/>
    <feColorMatrix type="matrix" values="0 0 0 0 0.639216 0 0 0 0 0.764706 0 0 0 0 0.921569 0 0 0 0.25 0"/>
    <feBlend mode="normal" in2="BackgroundImageFix" result="effect1_dropShadow_27_625"/>
    <feBlend mode="normal" in="SourceGraphic" in2="effect1_dropShadow_27_625" result="shape"/>
    </filter>
    <filter id="filter8_d_27_625" x="150" y="179" width="46" height="48" filterUnits="userSpaceOnUse" color-interpolation-filters="sRGB">
    <feFlood flood-opacity="0" result="BackgroundImageFix"/>
    <feColorMatrix in="SourceAlpha" type="matrix" values="0 0 0 0 0 0 0 0 0 0 0 0 0 0 0 0 0 0 127 0" result="hardAlpha"/>
    <feOffset dy="-1"/>
    <feGaussianBlur stdDeviation="0.5"/>
    <feComposite in2="hardAlpha" operator="out"/>
    <feColorMatrix type="matrix" values="0 0 0 0 0.639216 0 0 0 0 0.764706 0 0 0 0 0.921569 0 0 0 0.25 0"/>
    <feBlend mode="normal" in2="BackgroundImageFix" result="effect1_dropShadow_27_625"/>
    <feBlend mode="normal" in="SourceGraphic" in2="effect1_dropShadow_27_625" result="shape"/>
    </filter>
    <filter id="filter9_d_27_625" x="64" y="156" width="46" height="48" filterUnits="userSpaceOnUse" color-interpolation-filters="sRGB">
    <feFlood flood-opacity="0" result="BackgroundImageFix"/>
    <feColorMatrix in="SourceAlpha" type="matrix" values="0 0 0 0 0 0 0 0 0 0 0 0 0 0 0 0 0 0 127 0" result="hardAlpha"/>
    <feOffset dy="-1"/>
    <feGaussianBlur stdDeviation="0.5"/>
    <feComposite in2="hardAlpha" operator="out"/>
    <feColorMatrix type="matrix" values="0 0 0 0 0.639216 0 0 0 0 0.764706 0 0 0 0 0.921569 0 0 0 0.25 0"/>
    <feBlend mode="normal" in2="BackgroundImageFix" result="effect1_dropShadow_27_625"/>
    <feBlend mode="normal" in="SourceGraphic" in2="effect1_dropShadow_27_625" result="shape"/>
    </filter>
    <filter id="filter10_d_27_625" x="30.0513" y="122.785" width="55.0637" height="37.6228" filterUnits="userSpaceOnUse" color-interpolation-filters="sRGB">
    <feFlood flood-opacity="0" result="BackgroundImageFix"/>
    <feColorMatrix in="SourceAlpha" type="matrix" values="0 0 0 0 0 0 0 0 0 0 0 0 0 0 0 0 0 0 127 0" result="hardAlpha"/>
    <feOffset dy="-1"/>
    <feGaussianBlur stdDeviation="0.5"/>
    <feComposite in2="hardAlpha" operator="out"/>
    <feColorMatrix type="matrix" values="0 0 0 0 0.639216 0 0 0 0 0.764706 0 0 0 0 0.921569 0 0 0 0.25 0"/>
    <feBlend mode="normal" in2="BackgroundImageFix" result="effect1_dropShadow_27_625"/>
    <feBlend mode="normal" in="SourceGraphic" in2="effect1_dropShadow_27_625" result="shape"/>
    </filter>
    <filter id="filter11_d_27_625" x="223" y="170" width="33" height="36" filterUnits="userSpaceOnUse" color-interpolation-filters="sRGB">
    <feFlood flood-opacity="0" result="BackgroundImageFix"/>
    <feColorMatrix in="SourceAlpha" type="matrix" values="0 0 0 0 0 0 0 0 0 0 0 0 0 0 0 0 0 0 127 0" result="hardAlpha"/>
    <feOffset dy="-1"/>
    <feGaussianBlur stdDeviation="0.5"/>
    <feComposite in2="hardAlpha" operator="out"/>
    <feColorMatrix type="matrix" values="0 0 0 0 0.639216 0 0 0 0 0.764706 0 0 0 0 0.921569 0 0 0 0.25 0"/>
    <feBlend mode="normal" in2="BackgroundImageFix" result="effect1_dropShadow_27_625"/>
    <feBlend mode="normal" in="SourceGraphic" in2="effect1_dropShadow_27_625" result="shape"/>
    </filter>
    <filter id="filter12_d_27_625" x="323" y="161" width="39" height="30" filterUnits="userSpaceOnUse" color-interpolation-filters="sRGB">
    <feFlood flood-opacity="0" result="BackgroundImageFix"/>
    <feColorMatrix in="SourceAlpha" type="matrix" values="0 0 0 0 0 0 0 0 0 0 0 0 0 0 0 0 0 0 127 0" result="hardAlpha"/>
    <feOffset dx="1" dy="-1"/>
    <feGaussianBlur stdDeviation="0.5"/>
    <feComposite in2="hardAlpha" operator="out"/>
    <feColorMatrix type="matrix" values="0 0 0 0 0.639216 0 0 0 0 0.764706 0 0 0 0 0.921569 0 0 0 0.27 0"/>
    <feBlend mode="normal" in2="BackgroundImageFix" result="effect1_dropShadow_27_625"/>
    <feBlend mode="normal" in="SourceGraphic" in2="effect1_dropShadow_27_625" result="shape"/>
    </filter>
    <linearGradient id="paint0_linear_27_625" x1="234.5" y1="0" x2="234.5" y2="123" gradientUnits="userSpaceOnUse">
    <stop stop-color="#F2D56E"/>
    <stop offset="1" stop-color="#F3B14E"/>
    </linearGradient>
    </defs>
</svg>
