<svg width="340" height="279" viewBox="0 0 340 279" fill="none" xmlns="http://www.w3.org/2000/svg">
<path opacity="0.05" d="M304.694 181.672C310.646 161.296 310.663 140.213 309.184 119.216C307.773 99.0127 303.885 78.5508 293.804 60.7654C284.549 44.4131 270.46 31.0999 254.392 21.4474C219.694 0.588334 177.598 -4.88545 138.41 4.28356C118.489 8.94577 99.3938 17.2859 82.2081 28.3544C64.2998 39.889 48.6451 55.5161 39.2695 74.6829C22.0838 109.805 22.7547 154.441 34.6247 191.117C40.2157 208.367 48.9548 224.685 61.3925 237.947C75.1033 252.572 92.0826 261.603 110.782 268.285C126.936 274.053 143.881 277.696 161.015 278.698C197.279 280.856 234.575 271.549 262.736 247.772C282.106 231.437 297.228 207.228 304.694 181.672Z" fill="white"/>
<path opacity="0.05" d="M285.441 175.626C290.555 158.171 290.57 140.111 289.299 122.124C288.087 104.817 284.746 87.2891 276.085 72.0535C268.134 58.0456 256.029 46.6411 242.224 38.3725C212.413 20.504 176.247 15.815 142.578 23.6694C125.462 27.6632 109.057 34.8077 94.2915 44.2892C78.9055 54.1702 65.4557 67.5568 57.4006 83.9757C42.6354 114.062 43.2118 152.299 53.41 183.717C58.2135 198.494 65.7217 212.472 76.4077 223.832C88.1873 236.361 102.775 244.097 118.841 249.822C132.719 254.762 147.278 257.883 161.999 258.741C193.155 260.59 225.198 252.617 249.393 232.249C266.035 218.256 279.027 197.518 285.441 175.626Z" fill="white"/>
<path d="M261.114 173.184C265.473 158.359 265.486 143.019 264.402 127.741C263.369 113.042 260.522 98.1535 253.138 85.2128C246.36 73.3149 236.041 63.6282 224.273 56.6051C198.86 41.4281 168.03 37.4454 139.329 44.1167C124.739 47.5089 110.753 53.5772 98.1665 61.6306C85.0506 70.0232 73.5852 81.3934 66.7185 95.3392C54.1318 120.894 54.6232 153.371 63.3167 180.057C67.4115 192.608 73.812 204.481 82.9213 214.13C92.963 224.771 105.399 231.342 119.094 236.204C130.925 240.4 143.335 243.051 155.884 243.78C182.443 245.351 209.759 238.579 230.384 221.278C244.571 209.393 255.646 191.779 261.114 173.184Z" fill="white"/>
<path d="M274.114 168.184C278.473 153.359 278.486 138.019 277.402 122.741C276.369 108.042 273.522 93.1535 266.138 80.2128C259.36 68.3149 249.041 58.6282 237.273 51.6051C211.86 36.4281 181.03 32.4454 152.329 39.1167C137.739 42.5089 123.753 48.5772 111.166 56.6306C98.0506 65.0232 86.5852 76.3934 79.7185 90.3392C67.1318 115.894 67.6232 148.371 76.3167 175.057C80.4115 187.608 86.812 199.481 95.9213 209.13C105.963 219.771 118.399 226.342 132.094 231.204C143.925 235.4 156.335 238.051 168.884 238.78C195.443 240.351 222.759 233.579 243.384 216.278C257.571 204.393 268.646 186.779 274.114 168.184Z" fill="url(#paint0_linear_70_1092)"/>
<path opacity="0.2" d="M276.846 155.752C257.332 169.003 233.239 174.168 209.737 172.782C197.206 172.039 184.813 169.393 172.999 165.174C159.323 160.299 146.905 153.711 136.878 143.042C127.782 133.368 121.39 121.464 117.301 108.88C112.03 92.6179 109.778 74.2145 111.652 56.5416C124.171 48.5429 138.048 42.5092 152.504 39.1333C181.164 32.432 211.951 36.4251 237.328 51.6416C249.079 58.6956 259.383 68.4075 266.151 80.3238C273.524 93.3107 276.368 108.225 277.399 122.963C278.179 133.934 278.393 144.931 276.846 155.752Z" fill="#FBFCFE"/>
<path d="M276.046 168.708C279.426 157.075 280.271 144.914 279.93 132.854C279.602 121.296 278.594 109.6 275.605 98.3948C272.768 87.7805 268.001 77.8704 261.066 69.306C254.42 61.1063 246.047 54.3277 236.905 49.0583C218.003 38.1547 195.936 33.1494 174.158 34.1178C151.523 35.1364 129.469 42.6319 110.415 54.7679C101.702 60.314 93.6943 67.0926 87.2002 75.1414C80.643 83.253 75.9143 92.4965 72.8123 102.444C66.4569 122.818 66.7343 145.141 71.6648 165.778C76.6078 186.479 86.8975 206.148 104.211 219.114C112.697 225.465 122.432 229.942 132.407 233.413C143.693 237.349 155.496 239.839 167.425 240.682C188.37 242.166 209.958 238.506 228.595 228.634C247.308 218.724 261.696 202.45 270.523 183.347C272.705 178.606 274.558 173.714 276.046 168.708C276.74 166.382 273.096 165.376 272.402 167.702C266.639 187.082 255.127 205.381 238.847 217.655C222.681 229.829 202.682 236.054 182.569 237.073C160.93 238.167 138.573 233.551 119.192 223.855C110.049 219.277 101.802 213.253 95.094 205.519C88.3225 197.709 83.1776 188.503 79.5838 178.845C72.4844 159.804 70.0129 138.5 73.0645 118.391C74.5903 108.368 77.4779 98.4325 82.2319 89.4405C86.9102 80.5994 93.4673 72.8777 101.046 66.3758C108.99 59.5469 118.132 54.0762 127.59 49.6242C137.526 44.9459 148.093 41.5252 158.913 39.5884C179.606 35.891 201.307 37.8403 220.891 45.5244C239.969 53.0072 257.384 66.1745 266.564 84.7999C271.406 94.6345 273.865 105.538 275.05 116.379C276.299 127.71 276.74 139.318 275.643 150.674C275.088 156.447 274.016 162.144 272.402 167.715C271.721 170.054 275.365 171.048 276.046 168.708Z" fill="white"/>
<circle opacity="0.2" cx="139.5" cy="56.5" r="3.5" fill="#FBFCFE"/>
<circle opacity="0.2" cx="271.5" cy="125.5" r="6.5" fill="#FBFCFE"/>
<circle opacity="0.2" cx="166.5" cy="141.5" r="9.5" fill="#FBFCFE"/>
<circle opacity="0.2" cx="173.5" cy="89.5" r="4.5" fill="#FBFCFE"/>
<circle opacity="0.2" cx="231.5" cy="78.5" r="3.5" fill="#FBFCFE"/>
<circle opacity="0.2" cx="229.5" cy="109.5" r="3.5" fill="#FBFCFE"/>
<circle opacity="0.2" cx="75.5" cy="117.5" r="5.5" fill="#FBFCFE"/>
<circle opacity="0.2" cx="86.5" cy="188.5" r="5.5" fill="#FBFCFE"/>
<circle opacity="0.2" cx="145.5" cy="174.5" r="6.5" fill="#FBFCFE"/>
<circle opacity="0.2" cx="158.5" cy="221.5" r="2.5" fill="#FBFCFE"/>
<circle opacity="0.2" cx="231.5" cy="202.5" r="2.5" fill="#FBFCFE"/>
<g filter="url(#filter0_d_70_1092)">
<path d="M66.3571 241.842C65.247 240.176 76.5318 223.518 82.6803 218.683C83.3878 218.126 84.3404 218.326 84.8026 219.019L94.3936 233.412C94.916 234.196 94.6088 235.296 93.7003 235.752C83.3975 240.922 67.4887 243.54 66.3571 241.842Z" fill="url(#paint1_linear_70_1092)"/>
<path d="M127.438 219.302C126.299 220.04 125.11 220.812 123.872 221.637L103.775 235.029C100.031 237.524 95.1236 236.737 92.8143 233.272L84.6009 220.947C82.2916 217.481 83.4549 212.649 87.1992 210.154L107.368 196.714C108.58 195.906 109.725 195.122 110.824 194.37C116.5 190.484 120.915 187.462 126.65 186.454C133.517 185.246 143.289 185.974 145.487 189.273C147.685 192.571 144.595 201.87 140.837 207.743C137.698 212.648 133.21 215.559 127.438 219.302Z" fill="white"/>
<path d="M74.8304 206.547C74.6133 203.467 90.4241 200.377 97.6679 203.302L86.0457 211.047C83.4159 208.701 80.5432 208.015 74.8304 206.547Z" fill="#F46E5F"/>
<path d="M102.4 247.919C105.159 249.305 114.098 235.902 114.187 228.091L102.565 235.836C103.717 239.166 103.244 242.081 102.4 247.919Z" fill="#F46E5F"/>
<path d="M94.8963 228.001C87.5415 232.902 80.5764 235.371 79.3392 233.514C78.1021 231.658 83.0615 226.18 90.4163 221.278C97.7711 216.377 104.736 213.909 105.973 215.766C107.211 217.622 102.251 223.1 94.8963 228.001Z" fill="#F46E5F"/>
<path d="M135.513 185.968C139.092 186.091 141.524 186.736 143.369 187.609C144.221 188.013 145.039 188.6 145.487 189.273C145.878 189.86 145.979 190.364 146.096 190.894C146.206 191.394 146.264 192.263 146.185 193.338C146.044 195.254 145.495 197.681 144.697 199.75L135.513 185.968Z" fill="#1658B6"/>
<path d="M127.524 211.113C123.445 213.831 118.099 212.974 115.584 209.199C113.068 205.425 114.336 200.161 118.414 197.443C122.493 194.725 127.838 195.582 130.354 199.357C132.869 203.132 131.602 208.395 127.524 211.113Z" fill="#1658B6"/>
<path d="M126.329 209.32C123.32 211.325 119.377 210.693 117.521 207.909C115.665 205.124 116.6 201.241 119.609 199.236C122.618 197.231 126.561 197.863 128.417 200.648C130.272 203.433 129.338 207.315 126.329 209.32Z" fill="#A3C3EB"/>
</g>
<path d="M185.364 173.789C270.529 116.761 332.595 60.1149 323.991 47.2656C317.736 37.9254 290.926 45.9823 255.5 63.4405M66.4999 188.116C31.0261 217.943 8.65733 243.444 15.5789 253.78C19.6307 259.832 38.6327 255.091 66.4999 242.424" stroke="url(#paint2_linear_70_1092)"/>
<defs>
<filter id="filter0_d_70_1092" x="48.3196" y="168.096" width="115.337" height="103.121" filterUnits="userSpaceOnUse" color-interpolation-filters="sRGB">
<feFlood flood-opacity="0" result="BackgroundImageFix"/>
<feColorMatrix in="SourceAlpha" type="matrix" values="0 0 0 0 0 0 0 0 0 0 0 0 0 0 0 0 0 0 127 0" result="hardAlpha"/>
<feOffset dy="4"/>
<feGaussianBlur stdDeviation="2"/>
<feComposite in2="hardAlpha" operator="out"/>
<feColorMatrix type="matrix" values="0 0 0 0 0 0 0 0 0 0 0 0 0 0 0 0 0 0 0.25 0"/>
<feBlend mode="normal" in2="BackgroundImageFix" result="effect1_dropShadow_70_1092"/>
<feBlend mode="normal" in="SourceGraphic" in2="effect1_dropShadow_70_1092" result="shape"/>
</filter>
<linearGradient id="paint0_linear_70_1092" x1="174" y1="36" x2="174" y2="239" gradientUnits="userSpaceOnUse">
<stop stop-color="#1658B6"/>
<stop offset="1" stop-color="#F46E5F"/>
</linearGradient>
<linearGradient id="paint1_linear_70_1092" x1="145.515" y1="189.316" x2="66.4603" y2="241.997" gradientUnits="userSpaceOnUse">
<stop stop-color="#F2D56E"/>
<stop offset="1" stop-color="#F3B14E"/>
</linearGradient>
<linearGradient id="paint2_linear_70_1092" x1="155.191" y1="128.728" x2="219.5" y2="196.5" gradientUnits="userSpaceOnUse">
<stop offset="0.005" stop-color="#C1D04B"/>
<stop offset="1" stop-color="#C1D04B" stop-opacity="0"/>
</linearGradient>
</defs>
</svg>
