<svg viewBox="0 0 54 50" fill="none" xmlns="http://www.w3.org/2000/svg">
<path d="M0.5 15.5882C0.5 6.97909 7.47909 0 16.0882 0H28.5C42.3071 0 53.5 11.1929 53.5 25C53.5 38.8071 42.3071 50 28.5 50H16.0882C7.47909 50 0.5 43.0209 0.5 34.4118V15.5882Z" fill="#F55C98" fill-opacity="0.8"/>
<ellipse cx="16.3354" cy="29.0721" rx="2.70408" ry="2.71739" fill="black"/>
<path d="M34.0578 29.0721C34.0578 30.5728 32.8472 31.7895 31.3537 31.7895C29.8603 31.7895 28.6497 30.5728 28.6497 29.0721C28.6497 27.5713 29.8603 26.3547 31.3537 26.3547C32.8472 26.3547 34.0578 27.5713 34.0578 29.0721Z" fill="black"/>
<path d="M19.699 35.8694C19.699 40.7607 27.8112 40.7607 27.8112 35.8694" stroke="black" stroke-width="3" stroke-linecap="round"/>
</svg>
