<svg width="167" height="161" viewBox="0 0 167 161" fill="none" xmlns="http://www.w3.org/2000/svg">
<circle cx="50" cy="6" r="50" fill="#A3C3EB"/>
<circle cx="125" cy="27" r="50" fill="white"/>
<path d="M95.3711 63.2508C109.569 63.9846 117.07 69.4265 116.614 78.2362C116.159 87.0458 108.117 92.0745 93.9193 91.3407C79.7212 90.6069 63.1948 81.0926 56.7922 74.0521C65.7864 68.3534 81.173 62.517 95.3711 63.2508Z" fill="#99BF40"/>
<path d="M125.606 57.2417C131.75 70.0628 130.556 79.2521 122.601 83.0641C114.645 86.8762 106.384 82.2176 100.24 69.3965C94.0967 56.5753 94.5517 37.5113 97.6744 28.5218C106.98 33.6969 119.462 44.4206 125.606 57.2417Z" fill="#C1D04B"/>
<ellipse cx="160" cy="102.5" rx="59" ry="58.5" fill="#F5AA9E"/>
<ellipse cx="160" cy="102.5" rx="47.2" ry="46.8" fill="#F39186"/>
</svg>
