<svg viewBox="0 -10 140 136" fill="none" xmlns="http://www.w3.org/2000/svg">
<path d="M6.70411 -6.63773L10.3305 -4.42586L14.1912 -6.19749L14.0889 -1.95099L17.5535 0.506617L13.8247 2.54125L13.4287 6.77049L9.80225 4.55862L5.9416 6.33025L6.04392 2.08375L2.57932 -0.373856L6.30806 -2.40849L6.70411 -6.63773Z" fill="#CE38A4" fill-opacity="0.3"/>
<path d="M111.257 87.9366L111.281 92.1843L114.817 94.5377L111.151 96.6824L110.881 100.922L107.19 98.8185L103.384 100.704L103.36 96.4566L99.8236 94.1032L103.49 91.9585L103.76 87.7193L107.451 89.8223L111.257 87.9366Z" fill="#CE38A4" fill-opacity="0.3"/>
<path d="M39.6756 82.247L39.4899 86.4906L42.9056 89.0158L39.1376 90.9768L38.6586 95.1975L35.0763 92.9148L31.1817 94.6103L31.3673 90.3667L27.9516 87.8415L31.7196 85.8805L32.1986 81.6598L35.7809 83.9425L39.6756 82.247Z" fill="#CDCB4E" fill-opacity="0.3"/>
<path d="M23.2514 48.7056L21.2506 61.541L11.1352 53.3906L23.2514 48.7056Z" fill="#238DDA" fill-opacity="0.3"/>
<path d="M16.5481 118.657L27.7042 125.312L16.3626 131.646L16.5481 118.657Z" fill="#CDCB4E" fill-opacity="0.3"/>
<path d="M120.333 111.661L122.415 124.483L110.27 119.875L120.333 111.661Z" fill="#CDCB4E" fill-opacity="0.3"/>
<path d="M113 24L117.33 31.5H108.67L113 24Z" fill="#CDCB4E" fill-opacity="0.3"/>
<path d="M29.0617 11.9544L36.9726 15.4782L29.9655 20.5674L29.0617 11.9544Z" fill="#CDCB4E" fill-opacity="0.3"/>
<path d="M93.1986 4.16326L91.8071 12.711L85.1003 7.23207L93.1986 4.16326Z" fill="#238DDA" fill-opacity="0.3"/>
<path d="M45 112L49.3301 119.5H40.6699L45 112Z" fill="#CE38A4" fill-opacity="0.3"/>
<circle cx="8" cy="22" r="5" fill="#238DDA" fill-opacity="0.3"/>
<path d="M70 32L71.5 34.4019L74.3301 34.5L73 37L74.3301 39.5L71.5 39.5981L70 42L68.5 39.5981L65.6699 39.5L67 37L65.6699 34.5L68.5 34.4019L70 32Z" fill="#CE38A4" fill-opacity="0.3"/>
<path d="M125 6L126.5 8.40192L129.33 8.5L128 11L129.33 13.5L126.5 13.5981L125 16L123.5 13.5981L120.67 13.5L122 11L120.67 8.5L123.5 8.40192L125 6Z" fill="#CE38A4" fill-opacity="0.3"/>
<circle cx="68" r="5" fill="#CDCB4E" fill-opacity="0.3"/>
<circle cx="125" cy="62" r="5" fill="#238DDA" fill-opacity="0.3"/>
<circle cx="18" cy="102" r="5" fill="#CE38A4" fill-opacity="0.3"/>
<path d="M96.5 116L97.25 117.201L98.6651 117.25L98 118.5L98.6651 119.75L97.25 119.799L96.5 121L95.75 119.799L94.3349 119.75L95 118.5L94.3349 117.25L95.75 117.201L96.5 116Z" fill="#238DDA" fill-opacity="0.3"/>
<circle cx="56.5" cy="69.5" r="2.5" fill="#238DDA" fill-opacity="0.3"/>
<circle cx="76.5" cy="114.5" r="2.5" fill="#238DDA" fill-opacity="0.3"/>
<path d="M13.5 36L15.6651 39.75H11.3349L13.5 36Z" fill="#CDCB4E" fill-opacity="0.3"/>
<path d="M17.5 70L18.25 71.201L19.6651 71.25L19 72.5L19.6651 73.75L18.25 73.799L17.5 75L16.75 73.799L15.3349 73.75L16 72.5L15.3349 71.25L16.75 71.201L17.5 70Z" fill="#CE38A4" fill-opacity="0.3"/>
<circle cx="54.5" cy="13.5" r="2.5" fill="#238DDA" fill-opacity="0.3"/>
</svg>
