<svg width="82" height="41" viewBox="0 0 82 41" fill="none" xmlns="http://www.w3.org/2000/svg">
<g filter="url(#filter0_d_95_773)">
<rect x="4.24997" y="0.75" width="73" height="32" rx="8" fill="#99BF40" shape-rendering="crispEdges"/>
<path d="M24.4218 16.9844C24.4218 17.0365 24.4062 17.0781 24.375 17.1094C24.3437 17.1302 24.3125 17.1406 24.2812 17.1406H23.5468C23.4531 17.1406 23.4062 17.0885 23.4062 16.9844V10.2188C23.4062 10.125 23.4531 10.0781 23.5468 10.0781H24.2812C24.3125 10.0781 24.3437 10.0938 24.375 10.125C24.4062 10.1458 24.4218 10.1771 24.4218 10.2188V16.9844ZM24.6875 23.7656C24.6875 23.8594 24.6406 23.9062 24.5468 23.9062H15.8437C15.6041 23.9062 15.401 23.8177 15.2343 23.6406C15.0677 23.4635 14.9843 23.25 14.9843 23V20.5625C14.9843 20.5208 15 20.4844 15.0312 20.4531C15.0625 20.4219 15.0937 20.4062 15.125 20.4062H23.4062V18.7969H15.125C15.0937 18.7969 15.0625 18.7812 15.0312 18.75C15 18.7188 14.9843 18.6823 14.9843 18.6406V18.0469C14.9843 18.0052 15 17.9688 15.0312 17.9375C15.0625 17.9062 15.0937 17.8906 15.125 17.8906H24.2812C24.3125 17.8906 24.3437 17.9062 24.375 17.9375C24.4062 17.9688 24.4218 18.0052 24.4218 18.0469V21.125C24.4218 21.1667 24.4062 21.2031 24.375 21.2344C24.3437 21.2656 24.3125 21.2812 24.2812 21.2812H15.9843V23H24.5468C24.5885 23 24.6198 23.0156 24.6406 23.0469C24.6718 23.0885 24.6875 23.125 24.6875 23.1562V23.7656ZM21.7031 16.2344C21.7031 16.3385 21.651 16.3906 21.5468 16.3906H13.4062C13.3125 16.3906 13.2656 16.3385 13.2656 16.2344V15.625C13.2656 15.5938 13.276 15.5625 13.2968 15.5312C13.3281 15.5 13.3646 15.4844 13.4062 15.4844H14.6875V11.2812H13.7031C13.5989 11.2812 13.5468 11.2292 13.5468 11.125V10.5312C13.5468 10.4271 13.5989 10.375 13.7031 10.375H21.2656C21.3593 10.375 21.4062 10.4271 21.4062 10.5312V11.125C21.4062 11.2292 21.3593 11.2812 21.2656 11.2812H20.2812V15.4844H21.5468C21.5885 15.4844 21.625 15.5 21.6562 15.5312C21.6875 15.5625 21.7031 15.5938 21.7031 15.625V16.2344ZM19.2656 15.4844V11.2812H15.7031V15.4844H19.2656ZM35.2031 16.6875C35.1718 16.6875 35.1406 16.6719 35.1093 16.6406C35.0781 16.6094 35.0625 16.5781 35.0625 16.5469V15.9375C35.0625 15.8958 35.0781 15.8646 35.1093 15.8438C35.1406 15.8125 35.1718 15.7969 35.2031 15.7969H37.4843V10.2188C37.4843 10.1771 37.5 10.1458 37.5312 10.125C37.5625 10.0938 37.5937 10.0781 37.625 10.0781H38.3593C38.3906 10.0781 38.4218 10.0938 38.4531 10.125C38.4843 10.1458 38.5 10.1771 38.5 10.2188V23.7656C38.5 23.8073 38.4843 23.8385 38.4531 23.8594C38.4218 23.8906 38.3906 23.9062 38.3593 23.9062H37.625C37.5937 23.9062 37.5625 23.8906 37.5312 23.8594C37.5 23.8385 37.4843 23.8073 37.4843 23.7656V16.6875H35.2031ZM35.625 22.5625C35.625 22.6562 35.5781 22.7031 35.4843 22.7031H28.6406C28.401 22.7031 28.1979 22.6146 28.0312 22.4375C27.8646 22.2604 27.7812 22.0521 27.7812 21.8125V10.5312C27.7812 10.4271 27.8281 10.375 27.9218 10.375H34.9218C35.0156 10.375 35.0625 10.4271 35.0625 10.5312V11.125C35.0625 11.2292 35.0156 11.2812 34.9218 11.2812H28.7812V15.9688H34.0625C34.0937 15.9688 34.125 15.9844 34.1562 16.0156C34.1875 16.0469 34.2031 16.0781 34.2031 16.1094V16.6875C34.2031 16.7292 34.1875 16.7656 34.1562 16.7969C34.125 16.8281 34.0937 16.8438 34.0625 16.8438H28.7812V21.8125H35.4843C35.526 21.8125 35.5573 21.8281 35.5781 21.8594C35.6093 21.8906 35.625 21.9219 35.625 21.9531V22.5625Z" fill="white"/>
<path d="M67.25 7.75H47.25L55.25 17.21V23.75L59.25 25.75V17.21L67.25 7.75Z" stroke="white" stroke-linecap="round" stroke-linejoin="round"/>
</g>
<defs>
<filter id="filter0_d_95_773" x="0.249969" y="0.75" width="81" height="40" filterUnits="userSpaceOnUse" color-interpolation-filters="sRGB">
<feFlood flood-opacity="0" result="BackgroundImageFix"/>
<feColorMatrix in="SourceAlpha" type="matrix" values="0 0 0 0 0 0 0 0 0 0 0 0 0 0 0 0 0 0 127 0" result="hardAlpha"/>
<feOffset dy="4"/>
<feGaussianBlur stdDeviation="2"/>
<feComposite in2="hardAlpha" operator="out"/>
<feColorMatrix type="matrix" values="0 0 0 0 0 0 0 0 0 0 0 0 0 0 0 0 0 0 0.25 0"/>
<feBlend mode="normal" in2="BackgroundImageFix" result="effect1_dropShadow_95_773"/>
<feBlend mode="normal" in="SourceGraphic" in2="effect1_dropShadow_95_773" result="shape"/>
</filter>
</defs>
</svg>