<svg width="21" height="20" viewBox="0 0 21 20" fill="none" xmlns="http://www.w3.org/2000/svg">
<path fill-rule="evenodd" clip-rule="evenodd" d="M14.6196 13.8697C14.9125 13.5768 15.3874 13.5768 15.6803 13.8697L20.0303 18.2197C20.3232 18.5126 20.3232 18.9875 20.0303 19.2804C19.7374 19.5732 19.2625 19.5732 18.9696 19.2804L14.6196 14.9304C14.3267 14.6375 14.3267 14.1626 14.6196 13.8697Z" fill="#475467"/>
<path fill-rule="evenodd" clip-rule="evenodd" d="M9.50006 1.5C5.496 1.5 2.25006 4.74594 2.25006 8.75C2.25006 12.7541 5.496 16 9.50006 16C13.5041 16 16.7501 12.7541 16.7501 8.75C16.7501 4.74594 13.5041 1.5 9.50006 1.5ZM0.750061 8.75C0.750061 3.91751 4.66757 0 9.50006 0C14.3326 0 18.2501 3.91751 18.2501 8.75C18.2501 13.5825 14.3326 17.5 9.50006 17.5C4.66757 17.5 0.750061 13.5825 0.750061 8.75Z" fill="#475467"/>
</svg>